<?xml version="1.0" encoding="utf-8"?>
<!-- Generator: Adobe Illustrator 16.0.0, SVG Export Plug-In . SVG Version: 6.00 Build 0)  -->
<!DOCTYPE svg PUBLIC "-//W3C//DTD SVG 1.1//EN" "http://www.w3.org/Graphics/SVG/1.1/DTD/svg11.dtd">
<svg version="1.1" id="_004-social-media-1" xmlns="http://www.w3.org/2000/svg" xmlns:xlink="http://www.w3.org/1999/xlink"
	 x="0px" y="0px" width="109.275px" height="109.275px" viewBox="0 0 109.275 109.275" enable-background="new 0 0 109.275 109.275"
	 xml:space="preserve">
<path id="Path_496_1_" fill="#FFFFFF" d="M36.426,69.208c0-1.006-0.815-1.821-1.821-1.821s-1.821,0.815-1.821,1.821v1.82h-5.465
	c-1.006,0-1.821,0.816-1.821,1.822s0.815,1.821,1.821,1.821l0,0h5.465v1.821c0,1.006,0.815,1.821,1.821,1.821
	s1.821-0.815,1.821-1.821v-1.821h43.711c1.006,0,1.821-0.815,1.821-1.821s-0.815-1.822-1.821-1.822H36.426V69.208z"/>
<path id="Path_497_1_" fill="#FFFFFF" d="M48.216,45.803c-0.537,0.332-0.864,0.919-0.864,1.55v14.565
	c-0.005,1.006,0.806,1.825,1.812,1.831c0.285,0.001,0.567-0.064,0.823-0.192l14.57-7.285c0.9-0.448,1.267-1.541,0.818-2.441
	c-0.177-0.354-0.464-0.642-0.818-0.818l-14.57-7.285C49.423,45.444,48.753,45.473,48.216,45.803z M50.995,50.303l8.677,4.338
	l-8.677,4.338V50.303z"/>
<path id="Path_498_1_" fill="#FFFFFF" d="M34.604,49.175c1.006,0,1.821-0.815,1.821-1.821s-0.815-1.821-1.821-1.821
	c-3.018,0-5.464,2.446-5.464,5.464l0,0v1.82h-1.821c-1.006,0-1.821,0.815-1.821,1.822c0,1.006,0.815,1.821,1.821,1.821l0,0h1.821
	v5.464c0,1.006,0.815,1.821,1.821,1.821s1.822-0.815,1.822-1.821V56.46h1.82c1.006,0,1.821-0.815,1.821-1.821
	c0-1.007-0.815-1.822-1.821-1.822h-1.82v-1.82C32.783,49.99,33.598,49.175,34.604,49.175z"/>
<path id="Path_499_1_" fill="#FFFFFF" d="M74.672,61.924c0,1.006,0.815,1.821,1.821,1.821s1.821-0.815,1.821-1.821v-9.106
	c0-1.006-0.815-1.821-1.821-1.821s-1.821,0.815-1.821,1.821l0,0V61.924z"/>
<path id="Path_500_1_" fill="#FFFFFF" d="M78.315,47.353c0,1.006-0.815,1.821-1.82,1.821c-1.006,0-1.821-0.815-1.821-1.821
	c0-1.005,0.814-1.82,1.82-1.82C77.498,45.531,78.315,46.346,78.315,47.353C78.315,47.353,78.315,47.353,78.315,47.353z"/>
<path id="Path_501_1_" fill="#FFFFFF" d="M23.676,36.425h-5.464c-1.006,0-1.821,0.815-1.821,1.821v43.711
	c0,1.006,0.815,1.82,1.821,1.82h72.851c1.006,0,1.821-0.814,1.821-1.82V45.531c0-1.007-0.815-1.822-1.821-1.822
	s-1.821,0.815-1.821,1.822v34.6H20.034V40.068h3.643c1.006,0,1.821-0.815,1.821-1.821S24.683,36.425,23.676,36.425L23.676,36.425z"
	/>
<path id="Path_502_1_" fill="#FFFFFF" d="M63.744,40.068c1.006,0,1.821-0.815,1.821-1.821s-0.815-1.821-1.821-1.821H50.995
	c-1.006,0-1.822,0.815-1.822,1.821s0.816,1.821,1.822,1.821H63.744z"/>
<path id="Path_503_1_" fill="#FFFFFF" d="M98.348,43.71c-1.006,0-1.821,0.815-1.821,1.821v40.067
	c0.003,1.006-0.81,1.823-1.815,1.826c-0.002,0-0.004,0-0.005,0H14.57c-1.005,0-1.82-0.815-1.82-1.821V38.246
	c0-1.006-0.815-1.822-1.821-1.822c-1.007,0-1.822,0.816-1.822,1.822v47.353c0,3.018,2.446,5.464,5.464,5.464l0,0h25.5v7.285H29.14
	c-3.018-0.003-5.467,2.44-5.47,5.458c-0.004,3.018,2.44,5.467,5.458,5.47c0.004,0,0.008,0,0.012,0h51
	c1.006,0,1.821-0.815,1.821-1.821s-0.815-1.821-1.821-1.821h-51c-1.006,0-1.821-0.815-1.821-1.821s0.815-1.821,1.821-1.821h51
	c1.006,0,1.821-0.816,1.821-1.822s-0.815-1.821-1.821-1.821H69.206v-7.285h25.5c3.018,0,5.464-2.446,5.464-5.464l0,0V45.531
	C100.17,44.526,99.355,43.71,98.348,43.71L98.348,43.71z M65.565,98.348H43.706v-7.285h21.858V98.348z"/>
<path id="Path_504_1_" fill="#FFFFFF" d="M100.17,0H78.315c-5.026,0.006-9.1,4.079-9.105,9.105V29.14H50.66
	c0.217-0.583,0.332-1.199,0.34-1.821V5.464C51,2.447,48.554,0,45.536,0c-0.002,0-0.003,0-0.004,0H5.464C2.447,0,0,2.447,0,5.464
	v21.854c0,3.019,2.446,5.465,5.464,5.465l0,0h21.1L40.6,46.82c0.711,0.712,1.864,0.712,2.575,0.001
	c0.342-0.342,0.534-0.805,0.534-1.288V32.783h25.68c0.871,4.236,4.599,7.279,8.924,7.284h21.857c5.026-0.006,9.1-4.079,9.105-9.105
	V9.106C109.27,4.079,105.197,0.006,100.17,0z M43.71,29.14h-1.821c-1.006,0-1.821,0.815-1.821,1.821v10.174L28.607,29.674
	c-0.341-0.342-0.805-0.534-1.288-0.534H5.464c-1.006,0-1.821-0.815-1.821-1.821V5.464c0-1.006,0.815-1.821,1.821-1.821l0,0h40.068
	c1.005,0,1.82,0.815,1.82,1.821v21.854c0,1.006-0.815,1.821-1.82,1.821H43.71z M105.633,30.961c0,3.018-2.446,5.464-5.464,5.464
	H78.315c-3.018,0-5.464-2.446-5.464-5.464V9.106c0-3.018,2.446-5.464,5.464-5.464h21.855c3.018,0,5.464,2.446,5.464,5.464
	L105.633,30.961z"/>
<path id="Path_505_1_" fill="#FFFFFF" d="M96.527,18.213c-1.005,0-1.82,0.815-1.82,1.821l0,0c0,3.018-2.446,5.464-5.464,5.464
	c-3.019,0-5.465-2.446-5.465-5.464c0-3.019,2.446-5.465,5.465-5.465l0,0c1.006,0,1.821-0.815,1.821-1.821s-0.815-1.821-1.821-1.821
	c-5.029,0-9.106,4.077-9.106,9.106c0,5.028,4.077,9.105,9.106,9.105c5.028,0,9.105-4.077,9.105-9.105l0,0
	C98.348,19.028,97.532,18.213,96.527,18.213z"/>
<path id="Path_506_1_" fill="#FFFFFF" d="M36.425,7.285H18.212c-1.006,0-1.821,0.815-1.821,1.821s0.815,1.821,1.821,1.821h18.213
	c1.006,0,1.821-0.815,1.821-1.821S37.431,7.285,36.425,7.285z"/>
<path id="Path_507_1_" fill="#FFFFFF" d="M10.927,18.213h14.57c1.006,0,1.821-0.815,1.821-1.821s-0.815-1.822-1.821-1.822h-14.57
	c-1.006,0-1.821,0.816-1.821,1.822S9.921,18.213,10.927,18.213z"/>
<path id="Path_508_1_" fill="#FFFFFF" d="M36.426,21.855H20.034c-1.007,0-1.822,0.815-1.822,1.822c0,1.006,0.815,1.821,1.822,1.821
	h16.392c1.006,0,1.821-0.815,1.821-1.821C38.247,22.67,37.432,21.855,36.426,21.855z"/>
<path id="Path_509_1_" fill="#FFFFFF" d="M12.749,21.855h-1.822c-1.006,0-1.821,0.815-1.821,1.822c0,1.006,0.815,1.821,1.821,1.821
	h1.821c1.006,0,1.821-0.815,1.821-1.821C14.57,22.67,13.754,21.855,12.749,21.855L12.749,21.855z"/>
<path id="Path_510_1_" fill="#FFFFFF" d="M36.426,14.57h-3.643c-1.007,0-1.822,0.816-1.822,1.822s0.815,1.821,1.822,1.821h3.643
	c1.006,0,1.821-0.815,1.821-1.821S37.432,14.57,36.426,14.57z"/>
</svg>
