<svg id="_004-social-media-1" data-name="004-social-media-1" xmlns="http://www.w3.org/2000/svg" xmlns:xlink="http://www.w3.org/1999/xlink" width="109.276" height="109.276" viewBox="0 0 109.276 109.276">
  <defs>
    <linearGradient id="linear-gradient" x1="0.117" y1="-3.025" x2="1.124" y2="3.743" gradientUnits="objectBoundingBox">
      <stop offset="0" stop-color="#fc6681"/>
      <stop offset="1" stop-color="#fb294f"/>
    </linearGradient>
  </defs>
  <path id="Path_496" data-name="Path 496" d="M122.928,297.821a1.821,1.821,0,1,0-3.643,0v1.821h-5.464a1.821,1.821,0,1,0,0,3.643h5.464v1.821a1.821,1.821,0,1,0,3.643,0v-1.821h43.711a1.821,1.821,0,0,0,0-3.643H122.928Zm0,0" transform="translate(-86.502 -228.613)" fill="url(#linear-gradient)"/>
  <path id="Path_497" data-name="Path 497" d="M208.863,200.285a1.823,1.823,0,0,0-.864,1.55V216.4a1.821,1.821,0,0,0,2.635,1.639l14.57-7.285a1.821,1.821,0,0,0,0-3.26l-14.57-7.285A1.821,1.821,0,0,0,208.863,200.285Zm2.779,4.5,8.677,4.338-8.677,4.338Zm0,0" transform="translate(-160.647 -154.482)" fill="url(#linear-gradient)"/>
  <path id="Path_498" data-name="Path 498" d="M121.106,203.643a1.821,1.821,0,1,0,0-3.643,5.464,5.464,0,0,0-5.464,5.464v1.821h-1.821a1.821,1.821,0,1,0,0,3.643h1.821v5.464a1.821,1.821,0,0,0,3.643,0v-5.464h1.821a1.821,1.821,0,1,0,0-3.643h-1.821v-1.821A1.821,1.821,0,0,1,121.106,203.643Zm0,0" transform="translate(-86.502 -154.468)" fill="url(#linear-gradient)"/>
  <path id="Path_499" data-name="Path 499" d="M328,234.928a1.821,1.821,0,0,0,3.643,0v-9.106a1.821,1.821,0,0,0-3.643,0Zm0,0" transform="translate(-253.328 -173.004)" fill="url(#linear-gradient)"/>
  <path id="Path_500" data-name="Path 500" d="M331.643,201.821A1.821,1.821,0,1,1,329.821,200,1.821,1.821,0,0,1,331.643,201.821Zm0,0" transform="translate(-253.328 -154.468)" fill="url(#linear-gradient)"/>
  <path id="Path_501" data-name="Path 501" d="M79.285,160H73.821A1.821,1.821,0,0,0,72,161.821v43.711a1.821,1.821,0,0,0,1.821,1.821h72.851a1.821,1.821,0,0,0,1.821-1.821V169.106a1.821,1.821,0,1,0-3.643,0v34.6H75.643V163.643h3.643a1.821,1.821,0,0,0,0-3.643Zm0,0" transform="translate(-55.609 -123.575)" fill="url(#linear-gradient)"/>
  <path id="Path_502" data-name="Path 502" d="M230.57,163.643a1.821,1.821,0,0,0,0-3.643H217.821a1.821,1.821,0,0,0,0,3.643Zm0,0" transform="translate(-166.826 -123.575)" fill="url(#linear-gradient)"/>
  <path id="Path_503" data-name="Path 503" d="M129.242,167.285a1.821,1.821,0,0,0-1.821,1.821v40.068A1.821,1.821,0,0,1,125.6,211H45.464a1.821,1.821,0,0,1-1.821-1.821V161.821a1.821,1.821,0,1,0-3.643,0v47.353a5.464,5.464,0,0,0,5.464,5.464h25.5v7.285H60.034a5.464,5.464,0,1,0,0,10.928h51a1.821,1.821,0,0,0,0-3.643h-51a1.821,1.821,0,1,1,0-3.643h51a1.821,1.821,0,1,0,0-3.643H100.1v-7.285h25.5a5.464,5.464,0,0,0,5.464-5.464V169.106A1.821,1.821,0,0,0,129.242,167.285ZM96.459,221.923H74.6v-7.285H96.459Zm0,0" transform="translate(-30.894 -123.575)" fill="url(#linear-gradient)"/>
  <path id="Path_504" data-name="Path 504" d="M100.17,0H78.315a9.117,9.117,0,0,0-9.106,9.106V29.14H50.66A5.4,5.4,0,0,0,51,27.319V5.464A5.464,5.464,0,0,0,45.532,0H5.464A5.464,5.464,0,0,0,0,5.464V27.319a5.464,5.464,0,0,0,5.464,5.464h21.1L40.6,46.82a1.821,1.821,0,0,0,3.109-1.288V32.783h25.68a9.122,9.122,0,0,0,8.924,7.285H100.17a9.117,9.117,0,0,0,9.106-9.106V9.106A9.117,9.117,0,0,0,100.17,0ZM43.71,29.14H41.889a1.821,1.821,0,0,0-1.821,1.821V41.135L28.607,29.674a1.821,1.821,0,0,0-1.288-.534H5.464a1.821,1.821,0,0,1-1.821-1.821V5.464A1.821,1.821,0,0,1,5.464,3.643H45.532a1.821,1.821,0,0,1,1.821,1.821V27.319a1.821,1.821,0,0,1-1.821,1.821Zm61.923,1.821a5.464,5.464,0,0,1-5.464,5.464H78.315a5.464,5.464,0,0,1-5.464-5.464V9.106a5.464,5.464,0,0,1,5.464-5.464H100.17a5.464,5.464,0,0,1,5.464,5.464Zm0,0" transform="translate(0)" fill="url(#linear-gradient)"/>
  <path id="Path_505" data-name="Path 505" d="M368.391,55.285a1.821,1.821,0,0,0-1.821,1.821,5.464,5.464,0,1,1-5.464-5.464,1.821,1.821,0,0,0,0-3.643,9.106,9.106,0,1,0,9.106,9.106A1.821,1.821,0,0,0,368.391,55.285Zm0,0" transform="translate(-271.864 -37.072)" fill="url(#linear-gradient)"/>
  <path id="Path_506" data-name="Path 506" d="M92.034,32H73.821a1.821,1.821,0,0,0,0,3.643H92.034a1.821,1.821,0,1,0,0-3.643Zm0,0" transform="translate(-55.609 -24.715)" fill="url(#linear-gradient)"/>
  <path id="Path_507" data-name="Path 507" d="M41.821,67.643h14.57a1.821,1.821,0,1,0,0-3.643H41.821a1.821,1.821,0,1,0,0,3.643Zm0,0" transform="translate(-30.894 -49.43)" fill="url(#linear-gradient)"/>
  <path id="Path_508" data-name="Path 508" d="M98.213,96H81.821a1.821,1.821,0,0,0,0,3.643H98.213a1.821,1.821,0,0,0,0-3.643Zm0,0" transform="translate(-61.787 -74.145)" fill="url(#linear-gradient)"/>
  <path id="Path_509" data-name="Path 509" d="M43.643,96H41.821a1.821,1.821,0,1,0,0,3.643h1.821a1.821,1.821,0,0,0,0-3.643Zm0,0" transform="translate(-30.894 -74.145)" fill="url(#linear-gradient)"/>
  <path id="Path_510" data-name="Path 510" d="M141.464,64h-3.643a1.821,1.821,0,0,0,0,3.643h3.643a1.821,1.821,0,0,0,0-3.643Zm0,0" transform="translate(-105.038 -49.43)" fill="url(#linear-gradient)"/>
</svg>
