<svg id="_003-responsive" data-name="003-responsive" xmlns="http://www.w3.org/2000/svg" xmlns:xlink="http://www.w3.org/1999/xlink" width="115.763" height="108.045" viewBox="0 0 115.763 108.045">
  <defs>
    <linearGradient id="linear-gradient" x1="1" y1="-0.258" x2="1.204" y2="1.186" gradientUnits="objectBoundingBox">
      <stop offset="0" stop-color="#fc6681"/>
      <stop offset="1" stop-color="#fc6681"/>
    </linearGradient>
  </defs>
  <g id="Group_95" data-name="Group 95" transform="translate(0 0)">
    <g id="Group_94" data-name="Group 94" transform="translate(0 0)">
      <path id="Path_495" data-name="Path 495" d="M109.974,68.093V25.647A9.658,9.658,0,0,0,100.328,16H15.435a9.658,9.658,0,0,0-9.647,9.647V54.588A5.8,5.8,0,0,0,0,60.376v57.881a5.8,5.8,0,0,0,5.788,5.788H48.234a5.8,5.8,0,0,0,5.788-5.788h16.17a5.787,5.787,0,0,0,5.584-7.31L71.983,97.034h10.98v21.223a5.8,5.8,0,0,0,5.788,5.788h21.223a5.8,5.8,0,0,0,5.788-5.788V73.881A5.8,5.8,0,0,0,109.974,68.093ZM50.164,118.257a1.933,1.933,0,0,1-1.929,1.929H5.788a1.933,1.933,0,0,1-1.929-1.929V114.4H50.164Zm0-7.718H3.859V68.093H50.164Zm0-46.305H3.859V60.376a1.933,1.933,0,0,1,1.929-1.929H48.234a1.933,1.933,0,0,1,1.929,1.929Zm21.891,47.727a1.929,1.929,0,0,1-1.862,2.437H54.023v-3.859H71.667Zm-18.032-5.281V97.034H67.984l2.632,9.647ZM82.963,93.175H54.023V81.6H82.963Zm0-19.294V77.74H54.023V60.376a5.8,5.8,0,0,0-5.788-5.788H9.647V25.647a5.8,5.8,0,0,1,5.788-5.788h84.893a5.8,5.8,0,0,1,5.788,5.788V68.093H88.751A5.8,5.8,0,0,0,82.963,73.881ZM111.9,118.257a1.933,1.933,0,0,1-1.929,1.929H88.751a1.933,1.933,0,0,1-1.929-1.929V114.4H111.9Zm0-7.718H86.822V81.6H111.9Zm0-32.8H86.822V73.881a1.933,1.933,0,0,1,1.929-1.929h21.223a1.933,1.933,0,0,1,1.929,1.929Z" transform="translate(0 -16)" fill="url(#linear-gradient)"/>
    </g>
  </g>
  <g id="Group_97" data-name="Group 97" transform="translate(10.211 71.95)">
    <g id="Group_96" data-name="Group 96" transform="translate(0 0)">
      <rect id="Rectangle_28" data-name="Rectangle 28" width="10.914" height="3.859" transform="translate(0 7.718) rotate(-45)" fill="url(#linear-gradient)"/>
    </g>
  </g>
  <g id="Group_99" data-name="Group 99" transform="translate(17.928 62.303)">
    <g id="Group_98" data-name="Group 98" transform="translate(0 0)">
      <rect id="Rectangle_29" data-name="Rectangle 29" width="32.743" height="3.859" transform="translate(0 23.153) rotate(-45)" fill="url(#linear-gradient)"/>
    </g>
  </g>
  <g id="Group_101" data-name="Group 101" transform="translate(21.786 56.518)">
    <g id="Group_100" data-name="Group 100" transform="translate(0 0)">
      <rect id="Rectangle_30" data-name="Rectangle 30" width="16.371" height="3.859" transform="translate(0 11.576) rotate(-45)" fill="url(#linear-gradient)"/>
    </g>
  </g>
  <g id="Group_103" data-name="Group 103" transform="translate(91.242 70.026)">
    <g id="Group_102" data-name="Group 102" transform="translate(0 0)">
      <rect id="Rectangle_31" data-name="Rectangle 31" width="13.64" height="3.859" transform="translate(0 9.645) rotate(-45)" fill="url(#linear-gradient)"/>
    </g>
  </g>
  <g id="Group_105" data-name="Group 105" transform="translate(95.1 77.751)">
    <g id="Group_104" data-name="Group 104" transform="translate(0 0)">
      <rect id="Rectangle_32" data-name="Rectangle 32" width="13.64" height="3.859" transform="translate(0 9.645) rotate(-45)" fill="url(#linear-gradient)"/>
    </g>
  </g>
  <g id="Group_107" data-name="Group 107" transform="translate(50.727 21.789)">
    <g id="Group_106" data-name="Group 106" transform="translate(0 0)">
      <rect id="Rectangle_33" data-name="Rectangle 33" width="16.371" height="3.859" transform="translate(0 11.576) rotate(-45)" fill="url(#linear-gradient)"/>
    </g>
  </g>
  <g id="Group_109" data-name="Group 109" transform="translate(68.092 17.93)">
    <g id="Group_108" data-name="Group 108" transform="translate(0 0)">
      <rect id="Rectangle_34" data-name="Rectangle 34" width="16.371" height="3.859" transform="translate(0 11.576) rotate(-45)" fill="url(#linear-gradient)"/>
    </g>
  </g>
  <g id="Group_111" data-name="Group 111" transform="translate(56.514 33.367)">
    <g id="Group_110" data-name="Group 110" transform="translate(0 0)">
      <rect id="Rectangle_35" data-name="Rectangle 35" width="10.914" height="3.859" transform="translate(0 7.718) rotate(-45)" fill="url(#linear-gradient)"/>
    </g>
  </g>
  <g id="Group_113" data-name="Group 113" transform="translate(66.15 10.218)">
    <g id="Group_112" data-name="Group 112" transform="translate(0 0)">
      <rect id="Rectangle_36" data-name="Rectangle 36" width="10.941" height="3.859" transform="translate(0 7.737) rotate(-45)" fill="url(#linear-gradient)"/>
    </g>
  </g>
  <g id="Group_115" data-name="Group 115" transform="translate(13.506 7.718)">
    <g id="Group_114" data-name="Group 114">
      <rect id="Rectangle_37" data-name="Rectangle 37" width="3.859" height="3.859" fill="url(#linear-gradient)"/>
    </g>
  </g>
  <g id="Group_117" data-name="Group 117" transform="translate(21.223 7.718)">
    <g id="Group_116" data-name="Group 116">
      <rect id="Rectangle_38" data-name="Rectangle 38" width="3.859" height="3.859" fill="url(#linear-gradient)"/>
    </g>
  </g>
  <g id="Group_119" data-name="Group 119" transform="translate(28.941 7.718)">
    <g id="Group_118" data-name="Group 118">
      <rect id="Rectangle_39" data-name="Rectangle 39" width="3.859" height="3.859" fill="url(#linear-gradient)"/>
    </g>
  </g>
</svg>
