<?xml version="1.0" encoding="utf-8"?>
<!-- Generator: Adobe Illustrator 16.0.0, SVG Export Plug-In . SVG Version: 6.00 Build 0)  -->
<!DOCTYPE svg PUBLIC "-//W3C//DTD SVG 1.1//EN" "http://www.w3.org/Graphics/SVG/1.1/DTD/svg11.dtd">
<svg version="1.1" id="_003-responsive" xmlns="http://www.w3.org/2000/svg" xmlns:xlink="http://www.w3.org/1999/xlink" x="0px"
	 y="0px" width="115.764px" height="108.045px" viewBox="0 0 115.764 108.045" enable-background="new 0 0 115.764 108.045"
	 xml:space="preserve">
<g id="Group_95" transform="translate(0 0)">
	<g id="Group_94" transform="translate(0 0)">
		<path id="Path_495" fill="#FFFFFF" d="M109.974,52.093V9.647c-0.007-5.325-4.321-9.64-9.646-9.647H15.435
			C10.11,0.006,5.794,4.322,5.788,9.647v28.941C2.594,38.595,0.007,41.182,0,44.376v57.881c0.007,3.193,2.595,5.781,5.788,5.788
			h42.446c3.193-0.007,5.781-2.595,5.788-5.788h16.17c3.196,0.001,5.787-2.59,5.788-5.785c0-0.516-0.068-1.027-0.204-1.524
			l-3.793-13.913h10.979v21.223c0.007,3.193,2.595,5.781,5.788,5.788h21.224c3.193-0.007,5.781-2.595,5.788-5.788V57.881
			C115.756,54.687,113.168,52.1,109.974,52.093z M50.164,102.257c-0.002,1.064-0.864,1.927-1.929,1.93H5.788
			c-1.064-0.003-1.927-0.865-1.929-1.93v-3.857h46.305V102.257z M50.164,94.539H3.859V52.093h46.305V94.539z M50.164,48.234H3.859
			v-3.858c0.002-1.064,0.864-1.927,1.929-1.929h42.446c1.064,0.002,1.927,0.864,1.929,1.929L50.164,48.234z M72.055,95.961
			c0.28,1.028-0.325,2.089-1.354,2.369c-0.166,0.045-0.337,0.067-0.509,0.067h-16.17v-3.858h17.644L72.055,95.961z M54.023,90.681
			v-9.646h13.961l2.632,9.646H54.023z M82.963,77.175H54.023V65.601h28.939V77.175z M82.963,57.881v3.859H54.023V44.376
			c-0.007-3.194-2.595-5.781-5.788-5.788H9.647V9.647c0.007-3.194,2.594-5.781,5.788-5.788h84.893
			c3.194,0.007,5.781,2.594,5.788,5.788v42.446H88.751C85.557,52.1,82.969,54.687,82.963,57.881z M111.9,102.257
			c-0.002,1.064-0.864,1.927-1.929,1.93H88.751c-1.064-0.003-1.927-0.865-1.929-1.93v-3.857H111.9V102.257z M111.9,94.539H86.822
			V65.601H111.9V94.539z M111.9,61.739H86.822v-3.858c0.002-1.064,0.864-1.927,1.929-1.929h21.224
			c1.064,0.002,1.927,0.864,1.929,1.929L111.9,61.739z"/>
	</g>
</g>
<g id="Group_97" transform="translate(10.211 71.95)">
	<g id="Group_96" transform="translate(0 0)">
		
			<rect id="Rectangle_28" x="-0.234" y="3.294" transform="matrix(-0.7071 0.7071 -0.7071 -0.7071 12.6094 5.2237)" fill="#FFFFFF" width="10.915" height="3.859"/>
	</g>
</g>
<g id="Group_99" transform="translate(17.928 62.303)">
	<g id="Group_98" transform="translate(0 0)">
		
			<rect id="Rectangle_29" x="-3.43" y="11.012" transform="matrix(-0.7071 0.7071 -0.7071 -0.7071 31.2422 12.9413)" fill="#FFFFFF" width="32.742" height="3.859"/>
	</g>
</g>
<g id="Group_101" transform="translate(21.786 56.518)">
	<g id="Group_100" transform="translate(0 0)">
		
			<rect id="Rectangle_30" x="-1.033" y="5.223" transform="matrix(-0.7071 0.7071 -0.7071 -0.7071 17.2671 7.153)" fill="#FFFFFF" width="16.37" height="3.859"/>
	</g>
</g>
<g id="Group_103" transform="translate(91.242 70.026)">
	<g id="Group_102" transform="translate(0 0)">
		
			<rect id="Rectangle_31" x="-0.633" y="4.257" transform="matrix(-0.7071 0.7071 -0.7071 -0.7071 14.9366 6.1868)" fill="#FFFFFF" width="13.639" height="3.859"/>
	</g>
</g>
<g id="Group_105" transform="translate(95.1 77.751)">
	<g id="Group_104" transform="translate(0 0)">
		
			<rect id="Rectangle_32" x="-0.633" y="4.257" transform="matrix(-0.7071 0.7071 -0.7071 -0.7071 14.9361 6.1862)" fill="#FFFFFF" width="13.639" height="3.859"/>
	</g>
</g>
<g id="Group_107" transform="translate(50.727 21.789)">
	<g id="Group_106" transform="translate(0 0)">
		
			<rect id="Rectangle_33" x="-1.033" y="5.223" transform="matrix(-0.7071 0.7071 -0.7071 -0.7071 17.2678 7.1522)" fill="#FFFFFF" width="16.371" height="3.859"/>
	</g>
</g>
<g id="Group_109" transform="translate(68.092 17.93)">
	<g id="Group_108" transform="translate(0 0)">
		
			<rect id="Rectangle_34" x="-1.033" y="5.222" transform="matrix(-0.7071 0.7071 -0.7071 -0.7071 17.2673 7.1522)" fill="#FFFFFF" width="16.371" height="3.86"/>
	</g>
</g>
<g id="Group_111" transform="translate(56.514 33.367)">
	<g id="Group_110" transform="translate(0 0)">
		
			<rect id="Rectangle_35" x="-0.234" y="3.294" transform="matrix(-0.7071 0.7071 -0.7071 -0.7071 12.61 5.2237)" fill="#FFFFFF" width="10.914" height="3.859"/>
	</g>
</g>
<g id="Group_113" transform="translate(66.15 10.218)">
	<g id="Group_112" transform="translate(0 0)">
		
			<rect id="Rectangle_36" x="-0.238" y="3.304" transform="matrix(-0.7071 0.7071 -0.7071 -0.7071 12.633 5.2336)" fill="#FFFFFF" width="10.941" height="3.859"/>
	</g>
</g>
<g id="Group_115" transform="translate(13.506 7.718)">
	<g id="Group_114">
		<rect id="Rectangle_37" x="0" y="0" fill="#FFFFFF" width="3.859" height="3.859"/>
	</g>
</g>
<g id="Group_117" transform="translate(21.223 7.718)">
	<g id="Group_116">
		<rect id="Rectangle_38" x="0" y="0" fill="#FFFFFF" width="3.858" height="3.859"/>
	</g>
</g>
<g id="Group_119" transform="translate(28.941 7.718)">
	<g id="Group_118">
		<rect id="Rectangle_39" x="0" y="0" fill="#FFFFFF" width="3.858" height="3.859"/>
	</g>
</g>
</svg>
