<?xml version="1.0" encoding="utf-8"?>
<!-- Generator: Adobe Illustrator 16.0.0, SVG Export Plug-In . SVG Version: 6.00 Build 0)  -->
<!DOCTYPE svg PUBLIC "-//W3C//DTD SVG 1.1//EN" "http://www.w3.org/Graphics/SVG/1.1/DTD/svg11.dtd">
<svg version="1.1" id="_008-computer" xmlns="http://www.w3.org/2000/svg" xmlns:xlink="http://www.w3.org/1999/xlink" x="0px"
	 y="0px" width="113.535px" height="101.57px" viewBox="0 0 113.535 101.57" enable-background="new 0 0 113.535 101.57"
	 xml:space="preserve">
<g id="Group_128" transform="translate(0 0)">
	<g id="Group_127" transform="translate(0 0)">
		<path id="Path_527" fill="#FFFFFF" d="M97.664,0H15.87C8.2,0,0,4.175,0,15.87v54.839c0,11.7,8.2,15.87,15.87,15.87h30.276v10.107
			h-5.03c-1.349-0.027-2.464,1.044-2.491,2.393c-0.027,1.349,1.044,2.464,2.393,2.49c0.033,0.001,0.065,0.001,0.099,0h32.229
			c1.349,0.027,2.464-1.043,2.491-2.392s-1.044-2.464-2.392-2.491c-0.033,0-0.066,0-0.1,0h-5.957V86.579h30.275
			c11.699,0,15.87-8.2,15.87-15.87V15.87C113.535,4.175,105.331,0,97.664,0z M62.505,96.688H51.03V86.579h11.475V96.688
			L62.505,96.688z M108.65,70.709c0,3.3-1.073,10.987-10.986,10.987H15.87c-3.3,0-10.987-1.074-10.987-10.987v-3.492H108.65V70.709z
			 M108.65,62.359H4.883V15.968c0-9.913,7.691-10.987,10.987-10.987h81.794c3.3,0,10.986,1.074,10.986,10.987V62.359z"/>
	</g>
</g>
<g id="Group_130" transform="translate(16.813 11.034)">
	<g id="Group_129">
		<path id="Path_528" fill="#FFFFFF" d="M79.537,0.49c-1.078-0.81-2.609-0.593-3.42,0.485l0,0h0.122l-18.216,24.42l-8.546-11.109
			c-0.815-1.065-2.341-1.269-3.407-0.453c-0.128,0.099-0.246,0.21-0.354,0.332L31.8,29.985L21.594,12.552
			c-0.683-1.157-2.174-1.542-3.331-0.859c-0.346,0.204-0.636,0.491-0.845,0.835L0.572,39.751c-0.867,1.032-0.733,2.572,0.299,3.44
			c1.033,0.867,2.573,0.733,3.441-0.299c0.175-0.209,0.314-0.445,0.412-0.7l14.65-23.879l9.766,16.823
			c0.681,1.164,2.177,1.556,3.341,0.874c0.221-0.129,0.42-0.292,0.59-0.483l14.21-15.895l8.718,11.329
			c0.498,0.563,1.201,0.906,1.953,0.952c0.76-0.008,1.473-0.369,1.928-0.978L80.022,3.908C80.832,2.83,80.614,1.3,79.537,0.49z"/>
	</g>
</g>
</svg>
