<?xml version="1.0" encoding="utf-8"?>
<!-- Generator: Adobe Illustrator 16.0.0, SVG Export Plug-In . SVG Version: 6.00 Build 0)  -->
<!DOCTYPE svg PUBLIC "-//W3C//DTD SVG 1.1//EN" "http://www.w3.org/Graphics/SVG/1.1/DTD/svg11.dtd">
<svg version="1.1" id="_007-analysis" xmlns="http://www.w3.org/2000/svg" xmlns:xlink="http://www.w3.org/1999/xlink" x="0px"
	 y="0px" width="109.525px" height="106.719px" viewBox="0 0 109.525 106.719" enable-background="new 0 0 109.525 106.719"
	 xml:space="preserve">
<path id="Path_518" fill="#FFFFFF" d="M69.87,27.061c2.957,0.003,5.356-2.391,5.359-5.348c0.004-2.957-2.391-5.356-5.348-5.36
	s-5.356,2.391-5.36,5.348c-0.001,1.163,0.376,2.294,1.075,3.224L56.81,37.204c-1.849-0.608-3.882-0.16-5.305,1.168l-5.857-3.323
	c0.622-2.887-1.214-5.732-4.102-6.354c-2.887-0.622-5.732,1.214-6.354,4.102c-0.159,0.743-0.159,1.511,0,2.253l-5.856,3.323
	c-2.162-2.006-5.541-1.879-7.547,0.282c-2.006,2.162-1.879,5.541,0.282,7.547c2.162,2.006,5.541,1.879,7.547-0.283
	c1.186-1.278,1.673-3.054,1.306-4.757l5.856-3.323c2.05,1.913,5.23,1.913,7.28,0l5.857,3.323c-0.624,2.887,1.212,5.733,4.099,6.356
	c2.887,0.624,5.732-1.211,6.356-4.099c0.327-1.519-0.021-3.104-0.955-4.345l8.787-12.279C68.741,26.971,69.304,27.061,69.87,27.061z
	 M69.87,19.574c1.181,0,2.139,0.958,2.139,2.139c0,1.182-0.958,2.139-2.139,2.139c-1.182,0-2.14-0.958-2.14-2.139l0,0
	C67.733,20.532,68.69,19.576,69.87,19.574z M25.694,44.425c-1.181,0-2.139-0.958-2.139-2.139c0-1.182,0.958-2.139,2.139-2.139
	c1.182,0,2.14,0.958,2.14,2.139C27.831,43.467,26.874,44.423,25.694,44.425L25.694,44.425z M40.419,36.064
	c-1.182,0-2.14-0.958-2.14-2.139c0-1.181,0.958-2.139,2.14-2.139s2.139,0.958,2.139,2.139C42.556,35.105,41.6,36.062,40.419,36.064
	L40.419,36.064z M55.144,44.425c-1.181,0-2.139-0.958-2.139-2.139c0-1.182,0.958-2.139,2.139-2.139c1.182,0,2.14,0.958,2.14,2.139
	C57.281,43.466,56.325,44.423,55.144,44.425L55.144,44.425z"/>
<path id="Path_519" fill="#FFFFFF" d="M89.588,79.237H4.538c-0.733-0.001-1.328-0.596-1.329-1.328V11.717
	c0.001-0.733,0.596-1.328,1.329-1.329H12.1c0.887,0,1.604-0.719,1.604-1.604c0-0.886-0.718-1.604-1.604-1.604H4.538
	C2.032,7.182,0.003,9.212,0,11.717v66.19c0.003,2.506,2.032,4.535,4.538,4.538H15.6v3.531c0.002,2.014,1.635,3.646,3.648,3.647
	h16.06l-7.56,14.76c-0.404,0.789-0.093,1.756,0.696,2.16s1.756,0.092,2.159-0.696l8.31-16.224h17.738l8.31,16.224
	c0.404,0.788,1.371,1.101,2.159,0.696c0.789-0.404,1.101-1.371,0.696-2.16l-7.56-14.76h16.06c2.015-0.002,3.646-1.634,3.648-3.647
	v-3.531h9.623c0.886,0,1.604-0.718,1.604-1.604S90.474,79.236,89.588,79.237L89.588,79.237z M76.756,85.977
	c-0.001,0.242-0.197,0.438-0.439,0.439H19.248c-0.242-0.001-0.438-0.197-0.439-0.439v-3.531h57.947V85.977z"/>
<path id="Path_520" fill="#FFFFFF" d="M18.519,10.387h72.507c0.734,0.001,1.328,0.595,1.329,1.329v15.256
	c0,0.886,0.719,1.604,1.604,1.604c0.887,0,1.604-0.718,1.604-1.604V11.717c-0.003-2.505-2.032-4.535-4.538-4.538H56.687V4.025
	C56.684,1.803,54.884,0.003,52.662,0h-9.759c-2.222,0.003-4.021,1.803-4.024,4.025v3.154h-20.36c-0.886,0-1.604,0.718-1.604,1.604
	S17.633,10.388,18.519,10.387L18.519,10.387z M42.087,4.025c0-0.451,0.366-0.816,0.816-0.816h9.759c0.45,0,0.816,0.365,0.816,0.816
	v3.154H42.087V4.025z"/>
<path id="Path_521" fill="#FFFFFF" d="M22.44,55.836c-0.884,0-1.6,0.716-1.6,1.6l0,0v14.178c0,0.883,0.716,1.6,1.6,1.6l0,0h6.51
	c0.883,0,1.6-0.717,1.6-1.6l0,0V57.44c0-0.884-0.717-1.6-1.6-1.6l0,0L22.44,55.836z M27.34,70.013h-3.3V59.045h3.3V70.013z"/>
<path id="Path_522" fill="#FFFFFF" d="M37.165,47.637c-0.884,0-1.601,0.716-1.601,1.6l0,0v22.376c0,0.883,0.717,1.6,1.601,1.6l0,0
	h6.509c0.884,0,1.6-0.717,1.6-1.6l0,0V49.241c0-0.884-0.716-1.6-1.6-1.6l0,0L37.165,47.637z M42.065,70.013h-3.3V50.846h3.3V70.013z
	"/>
<path id="Path_523" fill="#FFFFFF" d="M51.89,55.836c-0.884,0-1.6,0.716-1.6,1.6l0,0v14.178c0,0.883,0.716,1.6,1.6,1.6l0,0h6.509
	c0.884,0,1.601-0.717,1.601-1.6l0,0V57.44c0-0.884-0.717-1.6-1.601-1.6l0,0L51.89,55.836z M56.79,70.013h-3.3V59.045h3.3V70.013z"/>
<path id="Path_524" fill="#FFFFFF" d="M66.615,65.303c-0.884,0-1.601,0.717-1.601,1.6l0,0v4.71c0,0.884,0.717,1.601,1.601,1.601l0,0
	h6.509c0.886,0,1.604-0.719,1.604-1.605c0-0.886-0.719-1.604-1.604-1.604h-4.9v-3.105c-0.002-0.884-0.72-1.598-1.604-1.596
	C66.618,65.303,66.616,65.303,66.615,65.303z"/>
<path id="Path_525" fill="#FFFFFF" d="M108.708,80.745l-9.2-15.941c7.922-8.456,7.489-21.733-0.967-29.655
	s-21.732-7.489-29.654,0.967c-7.922,8.456-7.489,21.732,0.967,29.654c2.517,2.358,5.577,4.06,8.908,4.953
	c1.781,0.479,3.617,0.722,5.461,0.723c1.59,0,3.175-0.182,4.723-0.545l9.2,15.943c1.63,2.949,5.341,4.018,8.289,2.389
	c2.949-1.629,4.019-5.34,2.39-8.289C108.787,80.876,108.748,80.809,108.708,80.745L108.708,80.745z M79.587,67.627
	C70.113,65.089,64.49,55.35,67.029,45.875c2.538-9.475,12.277-15.098,21.752-12.559c9.476,2.539,15.098,12.278,12.56,21.752
	c-1.22,4.551-4.196,8.43-8.276,10.785C88.989,68.221,84.136,68.86,79.587,67.627z M104.87,86.301
	c-1.383,0.797-3.149,0.323-3.948-1.057l-8.854-15.34c1.792-0.729,3.475-1.703,5-2.892l8.856,15.339
	c0.799,1.38,0.328,3.146-1.052,3.945c-0.002,0-0.004,0.002-0.005,0.002L104.87,86.301z"/>
<path id="Path_526" fill="#FFFFFF" d="M98.731,54.987c1.134-3.632,0.863-7.558-0.76-11c-0.378-0.801-1.333-1.144-2.134-0.766
	c-0.801,0.377-1.144,1.333-0.767,2.133c2.817,6.009,0.229,13.164-5.779,15.981c-6.01,2.817-13.165,0.229-15.981-5.78
	c-2.817-6.009-0.229-13.164,5.779-15.981c4.042-1.895,8.801-1.393,12.359,1.303c0.706,0.535,1.713,0.395,2.247-0.312
	s0.396-1.713-0.312-2.248c-6.707-5.082-16.264-3.764-21.345,2.942c-5.082,6.707-3.765,16.264,2.941,21.346
	c6.707,5.081,16.264,3.764,21.346-2.943C97.393,58.255,98.206,56.673,98.731,54.987z"/>
</svg>
