<svg id="_007-analysis" data-name="007-analysis" xmlns="http://www.w3.org/2000/svg" width="109.526" height="106.72" viewBox="0 0 109.526 106.72">
  <path id="Path_518" data-name="Path 518" d="M144.641,93.757a5.354,5.354,0,1,0-4.273-2.136L131.581,103.9a5.333,5.333,0,0,0-5.305,1.168l-5.857-3.323a5.348,5.348,0,1,0-10.456,0l-5.857,3.323a5.34,5.34,0,1,0,1.588,2.789l5.857-3.323a5.335,5.335,0,0,0,7.28,0l5.857,3.323a5.348,5.348,0,1,0,9.5-2.088l8.787-12.279A5.331,5.331,0,0,0,144.641,93.757Zm0-7.487a2.139,2.139,0,1,1-2.139,2.139A2.142,2.142,0,0,1,144.641,86.27Zm-44.176,24.851a2.139,2.139,0,1,1,2.139-2.139A2.142,2.142,0,0,1,100.465,111.121Zm14.725-8.361a2.139,2.139,0,1,1,2.139-2.139A2.142,2.142,0,0,1,115.191,102.76Zm14.725,8.361a2.139,2.139,0,1,1,2.139-2.139A2.142,2.142,0,0,1,129.916,111.121Z" transform="translate(-74.771 -66.696)" fill="#0c2a5e"/>
  <path id="Path_519" data-name="Path 519" d="M89.588,112.174H4.538a1.331,1.331,0,0,1-1.329-1.329V44.654a1.331,1.331,0,0,1,1.329-1.329H12.1a1.6,1.6,0,0,0,0-3.209H4.538A4.543,4.543,0,0,0,0,44.654v66.19a4.543,4.543,0,0,0,4.538,4.538H15.6v3.531a3.652,3.652,0,0,0,3.648,3.648h16.06l-7.56,14.76a1.6,1.6,0,1,0,2.856,1.463l8.309-16.223H56.652l8.309,16.223a1.6,1.6,0,1,0,2.856-1.463l-7.56-14.76h16.06a3.652,3.652,0,0,0,3.648-3.648v-3.531h9.623a1.6,1.6,0,0,0,0-3.209Zm-12.832,6.74a.44.44,0,0,1-.439.439H19.248a.44.44,0,0,1-.439-.439v-3.531H76.756Z" transform="translate(0 -32.937)" fill="#0c2a5e"/>
  <path id="Path_520" data-name="Path 520" d="M80.675,16.945h72.507a1.331,1.331,0,0,1,1.329,1.329V33.53a1.6,1.6,0,1,0,3.209,0V18.275a4.543,4.543,0,0,0-4.538-4.538H118.843V10.583a4.03,4.03,0,0,0-4.025-4.025H105.06a4.03,4.03,0,0,0-4.025,4.025v3.154H80.675a1.6,1.6,0,0,0,0,3.209Zm23.568-6.362a.817.817,0,0,1,.817-.816h9.758a.817.817,0,0,1,.817.816v3.154H104.243V10.583Z" transform="translate(-62.156 -6.558)" fill="#0c2a5e"/>
  <path id="Path_521" data-name="Path 521" d="M99.006,267.576a1.6,1.6,0,0,0-1.6,1.6v14.177a1.6,1.6,0,0,0,1.6,1.6h6.509a1.6,1.6,0,0,0,1.6-1.6V269.18a1.6,1.6,0,0,0-1.6-1.6Zm4.9,14.177h-3.3V270.785h3.3Z" transform="translate(-76.566 -211.74)" fill="#0c2a5e"/>
  <path id="Path_522" data-name="Path 522" d="M167.841,229.248a1.6,1.6,0,0,0-1.6,1.6v22.376a1.6,1.6,0,0,0,1.6,1.6h6.509a1.6,1.6,0,0,0,1.6-1.6V230.852a1.6,1.6,0,0,0-1.6-1.6Zm4.9,22.376h-3.3V232.457h3.3Z" transform="translate(-130.676 -181.611)" fill="#0c2a5e"/>
  <path id="Path_523" data-name="Path 523" d="M236.677,267.576a1.6,1.6,0,0,0-1.6,1.6v14.177a1.6,1.6,0,0,0,1.6,1.6h6.509a1.6,1.6,0,0,0,1.6-1.6V269.18a1.6,1.6,0,0,0-1.6-1.6Zm4.9,14.177h-3.3V270.785h3.3Z" transform="translate(-184.787 -211.74)" fill="#0c2a5e"/>
  <path id="Path_524" data-name="Path 524" d="M305.513,311.832a1.6,1.6,0,0,0-1.6,1.6v4.71a1.6,1.6,0,0,0,1.6,1.6h6.509a1.6,1.6,0,1,0,0-3.209h-4.9v-3.105A1.6,1.6,0,0,0,305.513,311.832Z" transform="translate(-238.898 -246.529)" fill="#0c2a5e"/>
  <path id="Path_525" data-name="Path 525" d="M341.021,195.717l-9.2-15.942a20.98,20.98,0,1,0-20.746,5.92,21.085,21.085,0,0,0,5.461.723,20.707,20.707,0,0,0,4.723-.545l9.2,15.943a6.1,6.1,0,1,0,10.563-6.1ZM311.9,182.6a17.761,17.761,0,1,1,13.477-1.774A17.646,17.646,0,0,1,311.9,182.6Zm25.283,18.673a2.893,2.893,0,0,1-3.948-1.057l-8.854-15.339a21.057,21.057,0,0,0,5-2.892l8.856,15.339a2.887,2.887,0,0,1-1.057,3.948Z" transform="translate(-232.313 -114.972)" fill="#0c2a5e"/>
  <path id="Path_526" data-name="Path 526" d="M352.086,191a15.184,15.184,0,0,0-.76-11,1.6,1.6,0,1,0-2.9,1.367,12.017,12.017,0,1,1-3.623-4.477,1.6,1.6,0,1,0,1.936-2.559A15.236,15.236,0,1,0,352.086,191Z" transform="translate(-253.355 -136.013)" fill="#0c2a5e"/>
</svg>
