<?xml version="1.0" encoding="utf-8"?>
<!-- Generator: Adobe Illustrator 16.0.0, SVG Export Plug-In . SVG Version: 6.00 Build 0)  -->
<!DOCTYPE svg PUBLIC "-//W3C//DTD SVG 1.1//EN" "http://www.w3.org/Graphics/SVG/1.1/DTD/svg11.dtd">
<svg version="1.1" id="_001-process" xmlns="http://www.w3.org/2000/svg" xmlns:xlink="http://www.w3.org/1999/xlink" x="0px"
	 y="0px" width="115.727px" height="115.727px" viewBox="0 0 115.727 115.727" enable-background="new 0 0 115.727 115.727"
	 xml:space="preserve">
<path id="Path_474" fill="#FFFFFF" d="M115.728,96.644v-14.1l-5.399-1.38c-0.037-0.091-0.075-0.183-0.114-0.272l2.843-4.791
	l-9.969-9.969l-4.791,2.843l-0.272-0.114l-1.38-5.399h-14.1l-1.38,5.399c-0.091,0.037-0.183,0.075-0.272,0.114l-4.791-2.843
	l-9.969,9.969l2.843,4.791c-0.039,0.092-0.076,0.184-0.114,0.273l-5.399,1.38v14.1l5.399,1.38c0.037,0.092,0.075,0.183,0.114,0.272
	l-2.843,4.791l9.969,9.969l4.791-2.843l0.273,0.114l1.38,5.399h14.1l1.38-5.399c0.092-0.037,0.183-0.075,0.272-0.114l4.791,2.843
	l9.969-9.969l-2.843-4.791c0.039-0.092,0.077-0.183,0.114-0.272L115.728,96.644z M108.368,102.5l-5.869,5.869l-3.989-2.367
	l-0.9,0.429c-0.579,0.276-1.173,0.522-1.778,0.737l-0.941,0.333l-1.146,4.493h-8.301l-1.146-4.493l-0.941-0.333
	c-0.605-0.213-1.199-0.459-1.778-0.737l-0.9-0.429l-3.984,2.362l-5.868-5.869l2.366-3.989l-0.429-0.9
	c-0.276-0.58-0.522-1.174-0.737-1.778l-0.334-0.941l-4.5-1.146V85.44l4.493-1.146l0.334-0.941c0.213-0.605,0.459-1.199,0.737-1.778
	l0.429-0.9l-2.367-3.989l5.869-5.869l3.989,2.367l0.9-0.429c0.579-0.276,1.173-0.522,1.778-0.737l0.941-0.334l1.146-4.5h8.301
	l1.146,4.493l0.941,0.334c0.605,0.213,1.199,0.459,1.778,0.737l0.9,0.429l3.989-2.367l5.869,5.869l-2.367,3.989l0.429,0.899
	c0.276,0.58,0.522,1.174,0.737,1.779l0.334,0.941l4.5,1.146v8.3l-4.493,1.146l-0.333,0.94c-0.213,0.606-0.459,1.2-0.737,1.779
	l-0.429,0.9L108.368,102.5z"/>
<path id="Path_475" fill="#FFFFFF" d="M89.596,74.663c-8.247,0-14.933,6.686-14.933,14.933s6.686,14.933,14.933,14.933
	s14.933-6.686,14.933-14.933C104.52,81.353,97.839,74.672,89.596,74.663z M89.596,100.795c-6.186,0-11.2-5.015-11.2-11.2
	s5.015-11.2,11.2-11.2s11.2,5.015,11.2,11.2C100.79,95.778,95.78,100.789,89.596,100.795z"/>
<path id="Path_476" fill="#FFFFFF" d="M89.595,82.129c-4.123,0-7.466,3.343-7.466,7.466s3.343,7.466,7.466,7.466
	s7.466-3.343,7.466-7.466C97.057,85.474,93.716,82.133,89.595,82.129z M89.595,93.329c-2.062,0-3.733-1.672-3.733-3.733
	s1.672-3.732,3.733-3.732s3.733,1.671,3.733,3.732C93.325,91.656,91.656,93.326,89.595,93.329z"/>
<path id="Path_477" fill="#FFFFFF" d="M47.272,31.605c0.622,1.814,1.698,3.438,3.126,4.719v1.583l-8.875,3.327
	c-3.636,1.375-6.045,4.852-6.058,8.738v9.758h44.8v-9.758c-0.013-3.887-2.421-7.362-6.055-8.74L65.331,37.9v-1.576
	c1.429-1.279,2.505-2.904,3.126-4.719c3.578-0.611,6.198-3.709,6.207-7.34V16.8c0-9.278-7.521-16.8-16.801-16.8
	c-9.278,0-16.8,7.521-16.8,16.8v7.466C41.073,27.897,43.694,30.994,47.272,31.605z M61.598,38.681L57.865,44.9l-3.733-6.221v-0.137
	c2.412,0.871,5.054,0.871,7.466,0V38.681z M51.465,41.492l3.763,6.27l-3.739,1.868l-2.414-7.242L51.465,41.492z M76.532,49.972V56
	H39.199v-6.028c0.007-2.332,1.452-4.417,3.634-5.243l2.744-1.027l3.73,11.199l8.556-4.277l8.557,4.277l3.73-11.199l2.746,1.029
	c2.181,0.825,3.626,2.911,3.632,5.242L76.532,49.972z M66.658,42.388l-2.415,7.244l-3.739-1.868l3.763-6.271L66.658,42.388z
	 M57.865,35.465c-4.122-0.004-7.463-3.344-7.468-7.465v-7.594c2.721-0.268,5.31-1.3,7.466-2.979c2.157,1.68,4.746,2.713,7.467,2.979
	V28C65.325,32.12,61.986,35.46,57.865,35.465z M69.065,27.48v-6.427c1.775,1.013,2.393,3.272,1.38,5.048
	C70.116,26.675,69.64,27.152,69.065,27.48z M57.865,3.733C65.077,3.742,70.922,9.587,70.93,16.8v1.038
	c-1.13-0.672-2.418-1.03-3.733-1.038h-0.32c-2.887,0.009-5.657-1.139-7.692-3.186l-1.32-1.322l-1.319,1.322
	c-2.035,2.047-4.806,3.194-7.692,3.186h-0.321c-1.314,0.008-2.603,0.366-3.732,1.038V16.8C44.806,9.587,50.652,3.741,57.865,3.733z
	 M46.665,21.051v6.427c-1.775-1.013-2.393-3.272-1.38-5.047C45.614,21.856,46.09,21.379,46.665,21.051z"/>
<path id="Path_478" fill="#FFFFFF" d="M0,115.728h37.331v-48.53H0V115.728z M3.733,70.928H33.6v41.069H3.733V70.928z"/>
<path id="Path_479" fill="#FFFFFF" d="M7.466,74.663h22.4v3.732h-22.4V74.663z"/>
<path id="Path_480" fill="#FFFFFF" d="M7.466,82.129h3.733v3.733H7.466V82.129z"/>
<path id="Path_481" fill="#FFFFFF" d="M14.933,82.129h14.934v3.733H14.933V82.129z"/>
<path id="Path_482" fill="#FFFFFF" d="M7.466,89.595h22.4v3.733h-22.4V89.595z"/>
<path id="Path_483" fill="#FFFFFF" d="M7.466,97.062h22.4v3.733h-22.4V97.062z"/>
<path id="Path_484" fill="#FFFFFF" d="M26.132,104.529h3.733v3.732h-3.733V104.529z"/>
<path id="Path_485" fill="#FFFFFF" d="M7.466,104.529h14.933v3.732H7.466V104.529z"/>
<path id="Path_486" fill="#FFFFFF" d="M49.851,83.449l-2.639-2.64l-8.786,8.786l8.786,8.786l2.639-2.64l-4.28-4.28h14.16v-3.733
	h-14.16L49.851,83.449z"/>
<path id="Path_487" fill="#FFFFFF" d="M20.532,29.865c0.003-1.029,0.838-1.862,1.866-1.863h8.561l-4.28,4.28l2.639,2.639
	l8.786-8.786l-8.786-8.786l-2.639,2.636l4.28,4.28h-8.561c-3.091,0.004-5.596,2.509-5.6,5.601v33.6h3.733V29.865z"/>
<path id="Path_488" fill="#FFFFFF" d="M89.596,29.865v23.492l-4.28-4.279l-2.639,2.639l8.786,8.786l8.786-8.786l-2.64-2.639
	l-4.279,4.279V29.865c-0.004-3.092-2.509-5.597-5.601-5.601h-9.334v3.733h9.333C88.76,27.999,89.595,28.834,89.596,29.865z"/>
</svg>
