<?xml version="1.0" encoding="utf-8"?>
<!-- Generator: Adobe Illustrator 16.0.0, SVG Export Plug-In . SVG Version: 6.00 Build 0)  -->
<!DOCTYPE svg PUBLIC "-//W3C//DTD SVG 1.1//EN" "http://www.w3.org/Graphics/SVG/1.1/DTD/svg11.dtd">
<svg version="1.1" id="_002-social-media" xmlns="http://www.w3.org/2000/svg" xmlns:xlink="http://www.w3.org/1999/xlink" x="0px"
	 y="0px" width="115.454px" height="115.454px" viewBox="0 0 115.454 115.454" enable-background="new 0 0 115.454 115.454"
	 xml:space="preserve">
<g id="Group_79" transform="translate(38.485 9.621)">
	<g id="Group_78">
		<rect id="Rectangle_26" x="0" y="0" fill="#FFFFFF" width="38.485" height="3.848"/>
	</g>
</g>
<g id="Group_81" transform="translate(25.015 38.485)">
	<g id="Group_80">
		<path id="Path_489" fill="#FFFFFF" d="M70.236,33.674c-0.004-3.717-3.018-6.73-6.734-6.734h-3.85V0H55.8v26.939h-4.811
			c-3.715-0.006-6.73,3-6.736,6.715c-0.002,1.818,0.732,3.561,2.036,4.83c-2.271,2.188-2.693,5.67-1.013,8.339
			c-2.379,1.097-3.904,3.474-3.91,6.093c0.006,1,0.236,1.987,0.676,2.887H26.939c-0.001-5.675-2.783-10.988-7.445-14.222
			c4.479-1.708,7.44-6.001,7.445-10.794c0-1.063-0.861-1.924-1.924-1.924H9.621V9.621H5.773v19.242
			C2.586,28.867,0.004,31.449,0,34.637v42.332h3.848V34.637c0.001-1.063,0.862-1.924,1.924-1.924h17.074
			c-0.881,3.396-3.944,5.768-7.453,5.771H9.62c-1.063,0-1.924,0.861-1.924,1.925s0.861,1.924,1.924,1.924
			c7.436,0.009,13.462,6.034,13.47,13.47v1.924c0,1.063,0.861,1.924,1.924,1.924h11.259c-0.438,0.9-0.67,1.888-0.676,2.888
			c0.004,3.718,3.018,6.729,6.735,6.733v7.701h3.848v-7.701h8.659c3.718-0.004,6.73-3.016,6.734-6.733
			c-0.006-1.013-0.242-2.008-0.69-2.914c3.688-0.121,6.581-3.209,6.46-6.897c-0.038-1.185-0.391-2.336-1.021-3.338
			c3.365-1.541,4.843-5.519,3.302-8.883c-0.347-0.755-0.83-1.439-1.427-2.018C69.499,37.224,70.234,35.488,70.236,33.674z
			 M54.841,65.424H42.333c-1.594,0-2.887-1.291-2.887-2.887c0-1.594,1.293-2.887,2.887-2.887H54.84c1.595,0,2.888,1.293,2.888,2.887
			C57.728,64.133,56.435,65.424,54.841,65.424L54.841,65.424z M60.614,55.803H48.107c-1.595,0-2.887-1.291-2.887-2.887
			c0-1.594,1.292-2.886,2.887-2.886h12.508c1.595,0,2.888,1.292,2.888,2.886C63.501,54.512,62.208,55.803,60.614,55.803z
			 M63.5,46.182H50.991c-1.594,0-2.887-1.291-2.887-2.887c0-1.594,1.293-2.886,2.887-2.886H63.5c1.595,0,2.886,1.292,2.886,2.886
			C66.386,44.891,65.095,46.182,63.5,46.182z M63.5,36.56H50.991c-1.594,0-2.887-1.291-2.887-2.887c0-1.595,1.293-2.887,2.887-2.887
			H63.5c1.595,0,2.886,1.292,2.886,2.887C66.386,35.269,65.095,36.56,63.5,36.56z"/>
	</g>
</g>
<g id="Group_83" transform="translate(7.697 17.318)">
	<g id="Group_82">
		<path id="Path_490" fill="#FFFFFF" d="M21.161,7.175c-0.038-0.554-0.313-1.064-0.756-1.4l-2-1.518
			c-0.549-2.849-3.303-4.712-6.151-4.164c-2.46,0.474-4.243,2.62-4.258,5.125c-1.547-0.271-3.02-0.866-4.322-1.745L3,3.023
			C2.119,2.429,0.923,2.661,0.329,3.542C0.115,3.86,0,4.234,0,4.617V6.2c-0.005,2.284,0.693,4.515,2,6.388l-1.439,1.456
			c-0.747,0.755-0.74,1.974,0.015,2.721c0.36,0.356,0.846,0.556,1.353,0.556h9.324c3.696-0.017,6.794-2.8,7.206-6.473l2.155-2.181
			C21.003,8.271,21.202,7.728,21.161,7.175z M15.21,8.654c-0.357,0.36-0.557,0.846-0.556,1.353c0.013,1.894-1.507,3.441-3.4,3.463
			h-4.9c0.313-0.723,0.155-1.563-0.4-2.122C5.056,10.433,4.413,9.3,4.088,8.06c1.844,0.778,3.825,1.178,5.827,1.176
			c1.063,0,1.924-0.861,1.924-1.924l0,0v-2.02c-0.021-0.776,0.592-1.422,1.368-1.443c0.776-0.021,1.422,0.592,1.443,1.368
			c0,0.025,0,0.05,0,0.075c0,0.602,0.281,1.169,0.761,1.533l0.917,0.694L15.21,8.654z"/>
	</g>
</g>
<g id="Group_85" transform="translate(51.954 28.864)">
	<g id="Group_84">
		<path id="Path_491" fill="#FFFFFF" d="M11.545,3.848V0H5.772C4.71,0,3.848,0.862,3.848,1.924V7.7H0v3.848h3.848v7.7H7.7v-7.7
			h3.849V7.7H7.7V3.852L11.545,3.848z"/>
	</g>
</g>
<g id="Group_87" transform="translate(40.409 21.167)">
	<g id="Group_86">
		<path id="Path_492" fill="#FFFFFF" d="M28.864,0H5.773C2.586,0.003,0.003,2.586,0,5.773v23.091
			c0.003,3.187,2.586,5.77,5.773,5.773h23.091c3.187-0.003,5.771-2.586,5.772-5.773V5.773C34.633,2.586,32.05,0.003,28.864,0z
			 M30.788,28.864c-0.001,1.062-0.862,1.923-1.924,1.924H5.773c-1.063-0.001-1.923-0.862-1.924-1.924V5.773
			C3.85,4.711,4.711,3.85,5.773,3.849h23.091c1.062,0.001,1.923,0.862,1.924,1.924V28.864z"/>
	</g>
</g>
<g id="Group_89" transform="translate(0 9.621)">
	<g id="Group_88">
		<path id="Path_493" fill="#FFFFFF" d="M28.864,0H5.773C2.586,0.003,0.003,2.586,0,5.773v23.091
			c0.003,3.187,2.586,5.77,5.773,5.773h23.091c3.187-0.003,5.77-2.586,5.773-5.773V5.773C34.634,2.586,32.051,0.003,28.864,0z
			 M30.788,28.864c-0.001,1.062-0.862,1.923-1.924,1.924H5.773c-1.062-0.001-1.923-0.862-1.924-1.924V5.773
			C3.85,4.711,4.711,3.85,5.773,3.849h23.091c1.063,0.001,1.923,0.862,1.924,1.924V28.864z"/>
	</g>
</g>
<g id="Group_91" transform="translate(80.818)">
	<g id="Group_90">
		<path id="Path_494" fill="#FFFFFF" d="M28.864,0H5.772C2.586,0.003,0.003,2.586,0,5.773v23.091
			c0.003,3.187,2.586,5.77,5.772,5.773h23.092c3.188-0.003,5.77-2.586,5.773-5.773V5.773C34.634,2.586,32.052,0.003,28.864,0z
			 M30.788,28.864c-0.001,1.062-0.861,1.923-1.924,1.924H5.772c-1.063-0.001-1.922-0.862-1.924-1.924v-9.622h4.043
			c1.063,5.206,6.146,8.564,11.352,7.501c3.777-0.771,6.73-3.724,7.502-7.501h4.043V28.864z M11.545,17.318
			c0-3.188,2.585-5.773,5.773-5.773s5.772,2.585,5.772,5.773s-2.584,5.773-5.772,5.773C14.132,23.088,11.548,20.505,11.545,17.318z
			 M30.787,15.394h-4.043c-1.063-5.206-6.146-8.565-11.351-7.502c-3.779,0.771-6.73,3.724-7.502,7.502H3.849V5.773
			c0-1.062,0.861-1.923,1.924-1.924h23.092c1.063,0.001,1.923,0.862,1.924,1.924L30.787,15.394L30.787,15.394z"/>
	</g>
</g>
<g id="Group_93" transform="translate(55.803 78.894)">
	<g id="Group_92">
		<rect id="Rectangle_27" x="0" y="0" fill="#FFFFFF" width="3.848" height="3.849"/>
	</g>
</g>
</svg>
