<?xml version="1.0" encoding="utf-8"?>
<!-- Generator: Adobe Illustrator 16.0.0, SVG Export Plug-In . SVG Version: 6.00 Build 0)  -->
<!DOCTYPE svg PUBLIC "-//W3C//DTD SVG 1.1//EN" "http://www.w3.org/Graphics/SVG/1.1/DTD/svg11.dtd">
<svg version="1.1" id="Layer_1" xmlns="http://www.w3.org/2000/svg" xmlns:xlink="http://www.w3.org/1999/xlink" x="0px" y="0px"
	 width="778.867px" height="133.42px" viewBox="0 0 778.867 133.42" enable-background="new 0 0 778.867 133.42"
	 xml:space="preserve">
<g>
	<path fill-rule="evenodd" clip-rule="evenodd" fill="#D40054" d="M0,0c0.045,2.596,0.346,5.219,0.077,7.783
		c-0.445,4.256,1.113,7.689,3.368,11.131c10.253,15.639,25.291,23.963,42.91,28.449c14.01,3.566,28.332,4.924,42.687,6.021
		c26.398,2.02,52.849,3.473,78.867,8.939c34.748,7.301,66.209,21.506,93.782,44.039c13.055,10.67,27.251,19.254,43.662,23.748
		c17.813,4.879,35.602,4.021,53.354-0.35c19.736-4.857,38.006-13.424,56.221-22.17c24.316-11.676,48.471-23.732,73.135-34.627
		c23.145-10.223,47.559-16.523,72.842-18.834c26.875-2.457,53.332,0.154,79.139,8.033c17.67,5.395,35.047,11.75,52.727,17.109
		c19.178,5.814,38.789,9.816,58.922,9.895c8.039,0.031,16.082-1.355,24.129-2.021c2.48-0.205,2.959-1.488,2.953-3.77
		c-0.07-26.496-0.045-52.992-0.035-79.488c0-1.297,0.084-2.594,0.129-3.889H0z"/>
</g>
</svg>
