<svg xmlns="http://www.w3.org/2000/svg" width="219.537" height="79.647" viewBox="0 0 219.537 79.647">
  <g id="Group_39782" data-name="Group 39782" transform="translate(-140 -45)">
    <path id="Path_34298" data-name="Path 34298" d="M484.029,369.243a19.088,19.088,0,0,0-31.26-13.013v-1.049a3.317,3.317,0,0,0-3.234-3.394h-.38a3.317,3.317,0,0,0-3.234,3.394V409.53a3.317,3.317,0,0,0,3.234,3.394h.38a3.317,3.317,0,0,0,3.234-3.394V385.523a19.087,19.087,0,0,0,24.483,0V387.8a3.234,3.234,0,0,0,3.234,3.234h.38A3.234,3.234,0,0,0,484.1,387.8V369.912A3.24,3.24,0,0,0,484.029,369.243Zm-6.778.67v2.656a12.357,12.357,0,0,1-24.483,0v-3.384a12.357,12.357,0,0,1,24.518.276A3.237,3.237,0,0,0,477.251,369.912Z" transform="translate(-287.409 -288.276)" fill="#fff"/>
    <g id="Group_39777" data-name="Group 39777" transform="translate(140 45)">
      <path id="Path_34299" data-name="Path 34299" d="M458.1,315.411a8.679,8.679,0,0,0-7.248-13.455,8.733,8.733,0,0,0-1.468.126,37.6,37.6,0,1,0-48.668,57.065v-9.839a30.237,30.237,0,0,1,42.548-42.886,8.68,8.68,0,0,0,7.588,12.895c.277,0,.55-.014.821-.04A30.275,30.275,0,0,1,413.9,357.7v7.638a37.619,37.619,0,0,0,44.2-49.924Zm-7.248-1.237a3.538,3.538,0,1,1,3.538-3.538A3.539,3.539,0,0,1,450.854,314.174Z" transform="translate(-385.374 -291.24)" fill="#fff"/>
    </g>
    <g id="Group_39780" data-name="Group 39780" transform="translate(225.218 69.465)">
      <g id="Group_39779" data-name="Group 39779" transform="translate(6.079 28.866)">
        <path id="Path_34300" data-name="Path 34300" d="M376.56,634.986a5.033,5.033,0,0,1,.75.14q.353.1.661.213v.427h-4.03v-.427a2.85,2.85,0,0,1,.6-.221q.309-.073.6-.132v-8.723a4.555,4.555,0,0,1-.632-.155q-.3-.1-.574-.213v-.427h1.324q.587,0,1.279-.058t1.324-.059a6.448,6.448,0,0,1,1.412.155,3.5,3.5,0,0,1,1.229.522,2.752,2.752,0,0,1,.868.978,3.167,3.167,0,0,1,.331,1.522,3.054,3.054,0,0,1-.338,1.486,2.958,2.958,0,0,1-.9,1.015,3.893,3.893,0,0,1-1.287.581,5.95,5.95,0,0,1-1.485.184h-.228q-.155,0-.331-.007c-.118-.005-.231-.012-.339-.022a2.337,2.337,0,0,1-.235-.029Zm1-8.87c-.236,0-.426.005-.574.015a3.057,3.057,0,0,0-.427.059v4.766a.682.682,0,0,0,.213.036c.093.006.192.013.294.022s.2.015.3.015h.235a3.278,3.278,0,0,0,.971-.14,2.122,2.122,0,0,0,.8-.448,2.223,2.223,0,0,0,.551-.779,2.813,2.813,0,0,0,.206-1.133,2.285,2.285,0,0,0-.684-1.81A2.761,2.761,0,0,0,377.56,626.116Z" transform="translate(-373.941 -624.703)" fill="#fff"/>
        <path id="Path_34301" data-name="Path 34301" d="M396.046,632.846a1.7,1.7,0,0,0-.4.36,2.476,2.476,0,0,0-.434.8v4.369a3.622,3.622,0,0,1,.589.111,2.72,2.72,0,0,1,.588.243v.368h-3.471v-.368a2.769,2.769,0,0,1,.5-.221c.157-.048.314-.093.471-.132V632.6l-.971-.118V632.1a6.1,6.1,0,0,1,.971-.331q.5-.125.956-.2h.368v1.559h.059a2.615,2.615,0,0,1,.375-.588,3.192,3.192,0,0,1,.559-.53,2.464,2.464,0,0,1,.691-.36,1.792,1.792,0,0,1,.773-.081,3.079,3.079,0,0,1,.183.419q.081.228.155.478v.382Z" transform="translate(-384.131 -628.035)" fill="#fff"/>
        <path id="Path_34302" data-name="Path 34302" d="M405.434,635.433a5.085,5.085,0,0,1,.242-1.641,3.34,3.34,0,0,1,.7-1.206,2.994,2.994,0,0,1,1.1-.75,3.77,3.77,0,0,1,1.42-.258,4.034,4.034,0,0,1,1.574.28,2.774,2.774,0,0,1,1.081.787,3.273,3.273,0,0,1,.618,1.214,5.806,5.806,0,0,1,.2,1.574,4.006,4.006,0,0,1-.941,2.854,3.308,3.308,0,0,1-2.53,1,3.932,3.932,0,0,1-1.53-.272,2.8,2.8,0,0,1-1.074-.78,3.364,3.364,0,0,1-.639-1.221A5.492,5.492,0,0,1,405.434,635.433Zm1.412,0a6.008,6.008,0,0,0,.125,1.25,3.127,3.127,0,0,0,.4,1.022,1.985,1.985,0,0,0,.713.684,2.113,2.113,0,0,0,1.059.25,1.51,1.51,0,0,0,1.3-.78,4.547,4.547,0,0,0,.507-2.427,5.984,5.984,0,0,0-.125-1.258,3.253,3.253,0,0,0-.39-1.015,2.012,2.012,0,0,0-.677-.684,1.858,1.858,0,0,0-.986-.25,1.618,1.618,0,0,0-1.4.78A4.387,4.387,0,0,0,406.846,635.433Z" transform="translate(-390.856 -628.048)" fill="#fff"/>
        <path id="Path_34303" data-name="Path 34303" d="M430.294,639.111h-3.148v-.368a3.527,3.527,0,0,1,.361-.184,3.1,3.1,0,0,1,.507-.169v-3.4a9.82,9.82,0,0,0-.051-1.059,2.679,2.679,0,0,0-.191-.787,1.07,1.07,0,0,0-.4-.486,1.271,1.271,0,0,0-.692-.169,1.345,1.345,0,0,0-.6.132,1.7,1.7,0,0,0-.486.353,2.372,2.372,0,0,0-.368.5,2.817,2.817,0,0,0-.243.588v4.325c.156.049.307.1.448.155a2.994,2.994,0,0,1,.419.2v.368h-3.162v-.368a4.032,4.032,0,0,1,.456-.191q.249-.088.515-.162v-5.781l-.971-.118v-.382a6.184,6.184,0,0,1,.963-.331q.493-.125.964-.2h.368v1.662H425a2.652,2.652,0,0,1,.8-1.177,2.083,2.083,0,0,1,1.4-.486,3.051,3.051,0,0,1,.676.074,1.682,1.682,0,0,1,.6.272,1.6,1.6,0,0,1,.471.552,2.865,2.865,0,0,1,.279.912,2.83,2.83,0,0,1,.854-1.31,2.191,2.191,0,0,1,1.471-.5,2.908,2.908,0,0,1,.948.14,1.4,1.4,0,0,1,.67.492,2.391,2.391,0,0,1,.389.957,7.7,7.7,0,0,1,.125,1.529v3.692a3.074,3.074,0,0,1,.971.353v.368H431.5v-.368a4.274,4.274,0,0,1,.868-.353v-3.662a7.582,7.582,0,0,0-.052-.941,2.107,2.107,0,0,0-.2-.7,1.051,1.051,0,0,0-.412-.442,1.4,1.4,0,0,0-.706-.154,1.327,1.327,0,0,0-1.1.485,3.075,3.075,0,0,0-.566,1.236v4.177a6.543,6.543,0,0,1,.956.353Z" transform="translate(-400.124 -628.048)" fill="#fff"/>
        <path id="Path_34304" data-name="Path 34304" d="M450.431,635.433a5.085,5.085,0,0,1,.243-1.641,3.333,3.333,0,0,1,.7-1.206,2.99,2.99,0,0,1,1.1-.75,3.77,3.77,0,0,1,1.419-.258,4.036,4.036,0,0,1,1.574.28,2.778,2.778,0,0,1,1.081.787,3.265,3.265,0,0,1,.617,1.214,5.786,5.786,0,0,1,.2,1.574,4.006,4.006,0,0,1-.941,2.854,3.309,3.309,0,0,1-2.531,1,3.928,3.928,0,0,1-1.529-.272,2.8,2.8,0,0,1-1.074-.78,3.364,3.364,0,0,1-.639-1.221A5.492,5.492,0,0,1,450.431,635.433Zm1.412,0a5.972,5.972,0,0,0,.125,1.25,3.124,3.124,0,0,0,.4,1.022,1.992,1.992,0,0,0,.713.684,2.115,2.115,0,0,0,1.06.25,1.51,1.51,0,0,0,1.3-.78,4.548,4.548,0,0,0,.507-2.427,5.98,5.98,0,0,0-.125-1.258,3.251,3.251,0,0,0-.39-1.015,2.006,2.006,0,0,0-.677-.684,1.858,1.858,0,0,0-.985-.25,1.62,1.62,0,0,0-1.4.78A4.391,4.391,0,0,0,451.843,635.433Z" transform="translate(-415.024 -628.048)" fill="#fff"/>
        <path id="Path_34305" data-name="Path 34305" d="M466.828,630.095a3.784,3.784,0,0,1,1.177-.517v-1.251a3.388,3.388,0,0,1,.449-.287,5.254,5.254,0,0,1,.507-.243h.368v1.927h2.207v.765h-2.207v4.244a2.1,2.1,0,0,0,.28,1.245.99.99,0,0,0,.839.366q.265,0,.662-.037a2.693,2.693,0,0,0,.676-.14l.1.221a1.859,1.859,0,0,1-.331.28,3.654,3.654,0,0,1-.486.279,3.4,3.4,0,0,1-.6.221,2.5,2.5,0,0,1-.662.088,1.75,1.75,0,0,1-1.346-.5,2.32,2.32,0,0,1-.463-1.611V630.49h-1.177Z" transform="translate(-423.831 -626.018)" fill="#fff"/>
        <path id="Path_34306" data-name="Path 34306" d="M482.709,635.407h-3.266v-.368a3.2,3.2,0,0,1,.457-.2q.235-.08.514-.155v-5.781l-.971-.118v-.382a7.276,7.276,0,0,1,.927-.309q.5-.133,1-.221h.368v6.811q.294.074.53.155a2.6,2.6,0,0,1,.441.2Zm-2.574-9.856a.816.816,0,0,1,.257-.633.976.976,0,0,1,.684-.235.954.954,0,0,1,.677.235.831.831,0,0,1,.25.633.806.806,0,0,1-.25.625.97.97,0,0,1-.677.228.993.993,0,0,1-.684-.228A.792.792,0,0,1,480.135,625.552Z" transform="translate(-430.607 -624.345)" fill="#fff"/>
        <path id="Path_34307" data-name="Path 34307" d="M496.723,639.111H493.56v-.368a5.392,5.392,0,0,1,.868-.353V634.9a4,4,0,0,0-.324-1.765,1.2,1.2,0,0,0-1.177-.647,1.759,1.759,0,0,0-.685.132,1.868,1.868,0,0,0-.559.361,2.5,2.5,0,0,0-.419.515,2.864,2.864,0,0,0-.28.6v4.295a2.618,2.618,0,0,1,.883.353v.368h-3.177v-.368a4.9,4.9,0,0,1,.971-.353v-5.781l-.971-.118v-.382a6.51,6.51,0,0,1,.883-.294c.333-.089.681-.167,1.044-.236h.368v1.648H491a3.259,3.259,0,0,1,.891-1.162,2.116,2.116,0,0,1,1.4-.486,3.649,3.649,0,0,1,1.052.14,1.634,1.634,0,0,1,.772.492,2.368,2.368,0,0,1,.471.949,5.882,5.882,0,0,1,.162,1.508v3.721a2.577,2.577,0,0,1,.971.353Z" transform="translate(-435.574 -628.048)" fill="#fff"/>
        <path id="Path_34308" data-name="Path 34308" d="M510.728,631.323a4.964,4.964,0,0,1,1.338.155,2.316,2.316,0,0,1,.912.478,6.211,6.211,0,0,1,1.809-.853,1.049,1.049,0,0,1,.169.4,2.044,2.044,0,0,1,.052.441l-.191.353h-1.545a2.4,2.4,0,0,1,.368,1.4,2.2,2.2,0,0,1-.743,1.721,3.161,3.161,0,0,1-2.169.662c-.187,0-.339-.005-.456-.015s-.25-.025-.4-.044c-.05.088-.106.186-.169.294a.655.655,0,0,0-.1.338.514.514,0,0,0,.338.463,4.365,4.365,0,0,0,.846.3q.508.133,1.1.272a5.6,5.6,0,0,1,1.11.382,2.635,2.635,0,0,1,.861.633,1.519,1.519,0,0,1,.36,1.007,1.718,1.718,0,0,1-.243.957,2.163,2.163,0,0,1-.713.713,3.674,3.674,0,0,1-1.1.441,5.981,5.981,0,0,1-1.405.155,4.39,4.39,0,0,1-2.419-.544,1.6,1.6,0,0,1-.817-1.368,1.751,1.751,0,0,1,.125-.691,1.494,1.494,0,0,1,.36-.515,2.306,2.306,0,0,1,.588-.39,6.538,6.538,0,0,1,.809-.317,1.48,1.48,0,0,1-.537-.4.946.946,0,0,1-.213-.625,1.021,1.021,0,0,1,.287-.669,2.835,2.835,0,0,1,.581-.523,2.228,2.228,0,0,1-1.287-.838,2.322,2.322,0,0,1-.449-1.4,2.288,2.288,0,0,1,.192-.934,2.152,2.152,0,0,1,.559-.758,2.545,2.545,0,0,1,.911-.5A4.094,4.094,0,0,1,510.728,631.323Zm2.177,8.723a.951.951,0,0,0-.317-.75,2.506,2.506,0,0,0-.787-.456,7.316,7.316,0,0,0-1.015-.294q-.545-.118-1.016-.265a1.6,1.6,0,0,0-.911,1.486,1.333,1.333,0,0,0,.559,1.17,2.822,2.822,0,0,0,1.618.389,3.363,3.363,0,0,0,.9-.1,1.656,1.656,0,0,0,.574-.272.925.925,0,0,0,.3-.4A1.4,1.4,0,0,0,512.9,640.047Zm-3.78-6.355a2.662,2.662,0,0,0,.081.67,1.471,1.471,0,0,0,.264.551,1.287,1.287,0,0,0,.493.375,1.86,1.86,0,0,0,.766.139,1.415,1.415,0,0,0,1.22-.5,2.028,2.028,0,0,0,.368-1.236,2,2,0,0,0-.36-1.257,1.467,1.467,0,0,0-1.228-.463,1.509,1.509,0,0,0-1.251.448A2.018,2.018,0,0,0,509.124,633.692Z" transform="translate(-445.695 -627.793)" fill="#fff"/>
        <path id="Path_34309" data-name="Path 34309" d="M538.677,625.6h3.177v.427a4.547,4.547,0,0,1-1.206.589v9.458h-.839l-5.339-8.1-.574-1.147h-.044l.132,1.147v6.987a3.828,3.828,0,0,1,1.133.515v.427H531.94v-.427a4.015,4.015,0,0,1,.567-.286q.3-.125.64-.229v-8.429q-.295-.117-.581-.25t-.537-.264V625.6h2.486l4.634,6.987.677,1.266h.059l-.074-1.266V626.62c-.206-.089-.4-.182-.6-.28a5.968,5.968,0,0,1-.537-.309Z" transform="translate(-458.803 -624.839)" fill="#fff"/>
        <path id="Path_34310" data-name="Path 34310" d="M561.54,638.081a1.473,1.473,0,0,1-.367.471,2.677,2.677,0,0,1-.573.383,3.463,3.463,0,0,1-.706.257,3.2,3.2,0,0,1-.78.1,4,4,0,0,1-1.53-.272,2.9,2.9,0,0,1-1.1-.78,3.431,3.431,0,0,1-.669-1.214,5.146,5.146,0,0,1-.228-1.589,4.215,4.215,0,0,1,.868-2.869,3.1,3.1,0,0,1,2.457-.986,3.762,3.762,0,0,1,1.015.14,2.288,2.288,0,0,1,1.522,1.324,3.227,3.227,0,0,1,.243,1.331c0,.167-.007.336-.022.508a5.257,5.257,0,0,1-.081.551H557a4.145,4.145,0,0,0,.155,1.154,2.72,2.72,0,0,0,.463.935,2.18,2.18,0,0,0,.779.625,2.511,2.511,0,0,0,1.1.228,3.886,3.886,0,0,0,1.044-.147,2,2,0,0,0,.795-.383Zm-2.692-5.854a1.527,1.527,0,0,0-1.28.566,3.734,3.734,0,0,0-.529,1.993h3.237c.009-.088.017-.174.022-.257s.007-.164.007-.243a2.788,2.788,0,0,0-.353-1.5A1.21,1.21,0,0,0,558.849,632.227Z" transform="translate(-471.502 -628.048)" fill="#fff"/>
        <path id="Path_34311" data-name="Path 34311" d="M570.741,630.095a3.791,3.791,0,0,1,1.177-.517v-1.251a3.425,3.425,0,0,1,.449-.287,5.157,5.157,0,0,1,.508-.243h.368v1.927h2.206v.765h-2.206v4.244a2.1,2.1,0,0,0,.279,1.245.99.99,0,0,0,.839.366q.265,0,.661-.037a2.688,2.688,0,0,0,.677-.14l.1.221a1.858,1.858,0,0,1-.331.28,3.716,3.716,0,0,1-.485.279,3.394,3.394,0,0,1-.6.221,2.5,2.5,0,0,1-.662.088,1.75,1.75,0,0,1-1.346-.5,2.32,2.32,0,0,1-.463-1.611V630.49h-1.177Z" transform="translate(-479.643 -626.018)" fill="#fff"/>
        <path id="Path_34312" data-name="Path 34312" d="M584.825,639.492l-2.309-6.8q-.206-.074-.4-.155a2.089,2.089,0,0,1-.375-.2v-.382h3.089v.368q-.206.118-.411.213a2.61,2.61,0,0,1-.427.155l1.255,4.3.187,1.059h.029l.221-1.088,1.589-4.854.441-.147,1.691,5.016.265,1.073h.03l.22-1.073,1.133-4.28a1.908,1.908,0,0,1-.375-.118,2.509,2.509,0,0,1-.434-.235v-.382h2.5v.382a2.941,2.941,0,0,1-.839.353l-2.088,6.619-.78.176-1.456-4.163-.28-1.22h-.044l-.338,1.22-1.324,3.987Z" transform="translate(-485.549 -628.254)" fill="#fff"/>
        <path id="Path_34313" data-name="Path 34313" d="M606.109,635.433a5.083,5.083,0,0,1,.243-1.641,3.319,3.319,0,0,1,.7-1.206,2.989,2.989,0,0,1,1.1-.75,3.77,3.77,0,0,1,1.419-.258,4.038,4.038,0,0,1,1.574.28,2.773,2.773,0,0,1,1.081.787,3.265,3.265,0,0,1,.618,1.214,5.8,5.8,0,0,1,.2,1.574,4.008,4.008,0,0,1-.942,2.854,3.308,3.308,0,0,1-2.53,1,3.934,3.934,0,0,1-1.53-.272,2.788,2.788,0,0,1-1.073-.78,3.364,3.364,0,0,1-.64-1.221A5.507,5.507,0,0,1,606.109,635.433Zm1.412,0a5.975,5.975,0,0,0,.125,1.25,3.116,3.116,0,0,0,.4,1.022,1.982,1.982,0,0,0,.714.684,2.111,2.111,0,0,0,1.059.25,1.51,1.51,0,0,0,1.3-.78,4.543,4.543,0,0,0,.507-2.427,5.982,5.982,0,0,0-.125-1.258,3.242,3.242,0,0,0-.39-1.015,2.01,2.01,0,0,0-.677-.684,1.86,1.86,0,0,0-.985-.25,1.617,1.617,0,0,0-1.4.78A4.385,4.385,0,0,0,607.521,635.433Z" transform="translate(-498.64 -628.048)" fill="#fff"/>
        <path id="Path_34314" data-name="Path 34314" d="M626.5,632.846a1.7,1.7,0,0,0-.4.36,2.476,2.476,0,0,0-.434.8v4.369a3.611,3.611,0,0,1,.589.111,2.71,2.71,0,0,1,.588.243v.368h-3.471v-.368a2.754,2.754,0,0,1,.5-.221c.157-.048.314-.093.471-.132V632.6l-.971-.118V632.1a6.125,6.125,0,0,1,.971-.331q.5-.125.956-.2h.367v1.559h.059a2.648,2.648,0,0,1,.375-.588,3.192,3.192,0,0,1,.559-.53,2.464,2.464,0,0,1,.691-.36,1.791,1.791,0,0,1,.772-.081,2.963,2.963,0,0,1,.184.419q.081.228.155.478v.382Z" transform="translate(-507.908 -628.035)" fill="#fff"/>
        <path id="Path_34315" data-name="Path 34315" d="M639.235,627.659h2.839v.382c-.187.079-.37.147-.552.206a5.062,5.062,0,0,1-.566.148q-.221.294-.508.632t-.581.677q-.294.338-.566.632t-.463.486q.22.294.536.713t.684.89q.368.471.757.956t.773.912l.823.353v.368h-1.824l-.4-.353q-.78-.971-1.294-1.728t-.941-1.42l-.486-.147v2.927a3.084,3.084,0,0,1,.956.353v.368h-3.251v-.368a4.876,4.876,0,0,1,.971-.353v-9.311l-1.118-.118v-.382a4.49,4.49,0,0,1,.985-.309l1.089-.221h.368v7.032h.382q.235-.265.515-.589t.559-.669q.28-.346.544-.685t.485-.647a2.351,2.351,0,0,1-.721-.353Z" transform="translate(-514.172 -623.952)" fill="#fff"/>
      </g>
      <path id="Path_34316" data-name="Path 34316" d="M389.472,577.033a11.328,11.328,0,0,1,.544-3.576,8.037,8.037,0,0,1,1.609-2.846,7.274,7.274,0,0,1,2.623-1.869,9.967,9.967,0,0,1,7.177,0,7.173,7.173,0,0,1,2.611,1.869,8.146,8.146,0,0,1,1.6,2.846,12.008,12.008,0,0,1,0,7.152,8.143,8.143,0,0,1-1.6,2.846,7.182,7.182,0,0,1-2.611,1.869,9.975,9.975,0,0,1-7.177,0,7.283,7.283,0,0,1-2.623-1.869,8.035,8.035,0,0,1-1.609-2.846A11.324,11.324,0,0,1,389.472,577.033Zm18.191,11.434a12.669,12.669,0,0,1-.953.9,8.932,8.932,0,0,1-1.064.78,5.269,5.269,0,0,1-1.176.544,4.183,4.183,0,0,1-1.287.2,6.812,6.812,0,0,1-2.29-.408q-1.15-.408-2.4-.941t-2.623-1.027a13.718,13.718,0,0,0-2.982-.693l.618-1.089a8.3,8.3,0,0,1,2.339-.112,17.767,17.767,0,0,1,2.277.371q1.126.26,2.252.582a22.082,22.082,0,0,0,2.265.52,12.842,12.842,0,0,0,2.326.186,8.023,8.023,0,0,0,2.45-.433ZM393.68,577.033a16.249,16.249,0,0,0,.247,2.933,7.768,7.768,0,0,0,.779,2.326,4.244,4.244,0,0,0,1.361,1.534,3.484,3.484,0,0,0,1.992.557,2.924,2.924,0,0,0,1.807-.557,4.077,4.077,0,0,0,1.212-1.534,8.322,8.322,0,0,0,.681-2.326,19.135,19.135,0,0,0,.21-2.933,17.092,17.092,0,0,0-.235-2.933,8.052,8.052,0,0,0-.743-2.327,4.056,4.056,0,0,0-1.336-1.534,3.532,3.532,0,0,0-2.017-.557,3.155,3.155,0,0,0-1.905.557,3.881,3.881,0,0,0-1.225,1.534,8.054,8.054,0,0,0-.644,2.327A21.6,21.6,0,0,0,393.68,577.033Z" transform="translate(-382.283 -568.074)" fill="#fff"/>
      <path id="Path_34317" data-name="Path 34317" d="M429.772,586.527q0-1.562.075-2.9t.074-2.828l-1.634-.2v-.941a9.771,9.771,0,0,1,.978-.3q.581-.149,1.2-.26t1.2-.2q.581-.087.977-.136h.842q0,1.855-.075,3.65t-.074,3.527a7.546,7.546,0,0,0,.409,2.92,1.521,1.521,0,0,0,1.522.891,2.1,2.1,0,0,0,1.423-.583,4.218,4.218,0,0,0,1.077-1.874v-6.5l-1.609-.2v-.941a8.442,8.442,0,0,1,.929-.3q.557-.149,1.163-.26t1.2-.2q.594-.087,1.04-.136h.842v10.914l1.633.2v.867a7.512,7.512,0,0,1-.866.3q-.519.148-1.089.285t-1.126.223q-.557.087-1,.136h-.842l-.173-2.945h-.1a3.7,3.7,0,0,1-.445,1.052,3.971,3.971,0,0,1-.829.965,4.171,4.171,0,0,1-2.735.978,5.457,5.457,0,0,1-1.671-.236,2.752,2.752,0,0,1-1.249-.831,3.973,3.973,0,0,1-.792-1.6A9.9,9.9,0,0,1,429.772,586.527Z" transform="translate(-403.131 -573.818)" fill="#fff"/>
      <path id="Path_34318" data-name="Path 34318" d="M473.362,587.85q0,.545.012.941t.062.841l1.708.248v.867a5.049,5.049,0,0,1-.8.3q-.507.148-1.064.285t-1.1.223q-.546.087-.966.136h-.842a3.634,3.634,0,0,1-.3-1.138q-.051-.569-.074-1.386h-.124a3.156,3.156,0,0,1-.421.953,3.364,3.364,0,0,1-.755.817,3.837,3.837,0,0,1-1.076.581,4.069,4.069,0,0,1-1.386.223,4.465,4.465,0,0,1-1.51-.248,3.793,3.793,0,0,1-1.212-.693,3.19,3.19,0,0,1-.817-1.077,3.3,3.3,0,0,1-.3-1.423,3.575,3.575,0,0,1,.421-1.831,3.1,3.1,0,0,1,1.324-1.176,7.9,7.9,0,0,1,2.326-.68,33.336,33.336,0,0,1,3.452-.322,7.551,7.551,0,0,0-.173-3.119,1.534,1.534,0,0,0-1.608-.99,3.9,3.9,0,0,0-1.411.248l-1.163,2.97h-1.089a5.627,5.627,0,0,1-.384-.681q-.186-.383-.346-.817a8.1,8.1,0,0,1-.272-.878,6.667,6.667,0,0,1-.161-.866,7.5,7.5,0,0,1,2.425-1.015,12.932,12.932,0,0,1,3.143-.371,7.143,7.143,0,0,1,2.3.309,3.459,3.459,0,0,1,1.4.842,2.9,2.9,0,0,1,.705,1.249,5.753,5.753,0,0,1,.2,1.535q0,1.484-.062,2.685T473.362,587.85Zm-5.569,1.906a1.865,1.865,0,0,0,.891-.2,2.462,2.462,0,0,0,.631-.47,1.97,1.97,0,0,0,.4-.594,5.564,5.564,0,0,0,.21-.569V585.45a13.872,13.872,0,0,0-1.905.148,2.957,2.957,0,0,0-1.163.409,1.48,1.48,0,0,0-.581.718,3.021,3.021,0,0,0-.161,1.052,2.174,2.174,0,0,0,.446,1.46A1.541,1.541,0,0,0,467.794,589.756Z" transform="translate(-421.452 -573.818)" fill="#fff"/>
      <path id="Path_34319" data-name="Path 34319" d="M507.036,591.439h-6.558V590.5q.322-.174.631-.311t.73-.285v-5.83a5.5,5.5,0,0,0-.445-2.445,1.621,1.621,0,0,0-1.584-.88,2.351,2.351,0,0,0-1.621.607,3.732,3.732,0,0,0-1.027,1.651v6.9a4.5,4.5,0,0,1,.705.236,4.9,4.9,0,0,1,.656.36v.941h-6.559V590.5a8.25,8.25,0,0,1,1.634-.6v-9.1l-1.634-.2v-.941a5.234,5.234,0,0,1,.842-.285q.519-.135,1.126-.26t1.237-.21q.631-.087,1.151-.136h.842v2.549h.024a4.951,4.951,0,0,1,1.56-1.794,4.183,4.183,0,0,1,2.524-.755A5.9,5.9,0,0,1,503,579a2.821,2.821,0,0,1,1.3.831,4,4,0,0,1,.817,1.6,9.536,9.536,0,0,1,.285,2.542V589.9a4.341,4.341,0,0,1,1.633.6Z" transform="translate(-437.332 -573.818)" fill="#fff"/>
      <path id="Path_34320" data-name="Path 34320" d="M525.594,576.379a6.427,6.427,0,0,1,1.98-.865v-2a4.793,4.793,0,0,1,.977-.433,10.549,10.549,0,0,1,1.745-.458h.842v3.143H534.4v1.609h-3.267v6.375a4.161,4.161,0,0,0,.383,2.117,1.4,1.4,0,0,0,1.275.591,9.061,9.061,0,0,0,1-.062,4.322,4.322,0,0,0,1.027-.235l.173.817a3.149,3.149,0,0,1-.655.47,7.927,7.927,0,0,1-.99.47,8.017,8.017,0,0,1-1.213.371,6.192,6.192,0,0,1-1.373.149,3.156,3.156,0,0,1-2.4-.837,3.858,3.858,0,0,1-.792-2.711v-7.515h-1.98Z" transform="translate(-455.395 -570.515)" fill="#fff"/>
      <path id="Path_34321" data-name="Path 34321" d="M548.571,586.527q0-1.562.074-2.9t.075-2.828l-1.634-.2v-.941a9.726,9.726,0,0,1,.978-.3q.581-.149,1.2-.26t1.2-.2q.582-.087.978-.136h.841q0,1.855-.074,3.65t-.074,3.527a7.556,7.556,0,0,0,.408,2.92,1.521,1.521,0,0,0,1.522.891,2.1,2.1,0,0,0,1.423-.583,4.208,4.208,0,0,0,1.077-1.874v-6.5l-1.609-.2v-.941a8.462,8.462,0,0,1,.928-.3q.557-.149,1.163-.26t1.2-.2q.594-.087,1.039-.136h.842v10.914l1.633.2v.867a7.547,7.547,0,0,1-.866.3q-.52.148-1.089.285t-1.126.223q-.557.087-1,.136h-.842l-.173-2.945h-.1a3.7,3.7,0,0,1-.445,1.052,3.95,3.95,0,0,1-.829.965,4.169,4.169,0,0,1-2.735.978,5.454,5.454,0,0,1-1.671-.236,2.755,2.755,0,0,1-1.25-.831,3.98,3.98,0,0,1-.792-1.6A9.907,9.907,0,0,1,548.571,586.527Z" transform="translate(-466.938 -573.818)" fill="#fff"/>
      <path id="Path_34322" data-name="Path 34322" d="M595.114,591.439h-6.188V590.5c.165-.1.35-.2.557-.311a4.747,4.747,0,0,1,.68-.285v-4.937q0-1.141-.062-1.935a4.658,4.658,0,0,0-.26-1.3,1.381,1.381,0,0,0-1.435-.98,1.839,1.839,0,0,0-1.373.607,3.679,3.679,0,0,0-.854,1.6V589.9a4.285,4.285,0,0,1,1.238.6v.941h-6.435V590.5a6.75,6.75,0,0,1,.767-.324q.421-.149.867-.274v-9.1l-1.634-.2v-.941a6.5,6.5,0,0,1,.978-.322q.581-.148,1.2-.26t1.2-.186l.978-.124h.841v2.8h.025a4.315,4.315,0,0,1,1.4-1.98,3.7,3.7,0,0,1,2.413-.816,5.445,5.445,0,0,1,1.164.124,2.935,2.935,0,0,1,1.051.457,2.848,2.848,0,0,1,.829.928,4.42,4.42,0,0,1,.5,1.535,4.6,4.6,0,0,1,1.485-2.2,3.886,3.886,0,0,1,2.525-.841,5.121,5.121,0,0,1,1.621.236,2.541,2.541,0,0,1,1.188.831,4.071,4.071,0,0,1,.73,1.612,11.187,11.187,0,0,1,.247,2.579V589.9a5.159,5.159,0,0,1,1.634.6v.941h-6.435V590.5a5.375,5.375,0,0,1,1.237-.6v-5.384a8.418,8.418,0,0,0-.358-2.854,1.482,1.482,0,0,0-1.547-.917,1.658,1.658,0,0,0-1.4.67,4.572,4.572,0,0,0-.754,1.786v6.7a6.133,6.133,0,0,1,.754.273,6.5,6.5,0,0,1,.632.323Z" transform="translate(-485.144 -573.818)" fill="#fff"/>
    </g>
  </g>
</svg>
