<svg id="_001-process" data-name="001-process" xmlns="http://www.w3.org/2000/svg" xmlns:xlink="http://www.w3.org/1999/xlink" width="115.727" height="115.727" viewBox="0 0 115.727 115.727">
  <defs>
    <linearGradient id="linear-gradient" x1="-0.034" y1="0.091" x2="1.054" y2="1.122" gradientUnits="objectBoundingBox">
      <stop offset="0" stop-color="#7e76f9"/>
      <stop offset="1" stop-color="#b2adfc"/>
    </linearGradient>
  </defs>
  <path id="Path_474" data-name="Path 474" d="M324.264,305.18v-14.1l-5.4-1.38c-.037-.091-.075-.182-.114-.272l2.843-4.791-9.969-9.969-4.791,2.843-.272-.114-1.38-5.4h-14.1l-1.38,5.4c-.091.037-.182.075-.272.114l-4.791-2.843-9.969,9.969,2.843,4.791c-.039.092-.076.183-.114.273l-5.4,1.38v14.1l5.4,1.38c.037.091.075.182.114.272l-2.843,4.791,9.969,9.969,4.791-2.843.273.114,1.38,5.4h14.1l1.38-5.4c.091-.037.182-.075.272-.114l4.791,2.843,9.969-9.969-2.843-4.791c.039-.092.077-.183.114-.272Zm-7.36,5.856-5.869,5.869-3.989-2.367-.9.429a18.719,18.719,0,0,1-1.779.737l-.941.333-1.146,4.493h-8.3l-1.146-4.493-.941-.333a17.625,17.625,0,0,1-1.779-.737l-.9-.429L285.23,316.9l-5.869-5.869,2.367-3.989-.429-.9a18.67,18.67,0,0,1-.737-1.779l-.334-.941-4.5-1.146v-8.3l4.493-1.146.334-.941a17.6,17.6,0,0,1,.737-1.779l.429-.9-2.367-3.989,5.869-5.869,3.989,2.367.9-.429a18.68,18.68,0,0,1,1.779-.737l.941-.334,1.146-4.5h8.3l1.146,4.493.941.334a17.594,17.594,0,0,1,1.779.737l.9.429,3.989-2.367,5.869,5.869-2.367,3.989.429.9a18.7,18.7,0,0,1,.737,1.779l.334.941,4.5,1.146v8.3l-4.493,1.146-.333.941a17.616,17.616,0,0,1-.737,1.779l-.429.9Zm0,0" transform="translate(-208.536 -208.536)" fill="url(#linear-gradient)"/>
  <path id="Path_475" data-name="Path 475" d="M334.933,320a14.933,14.933,0,1,0,14.933,14.933A14.95,14.95,0,0,0,334.933,320Zm0,26.132a11.2,11.2,0,1,1,11.2-11.2A11.211,11.211,0,0,1,334.933,346.132Zm0,0" transform="translate(-245.337 -245.337)" fill="url(#linear-gradient)"/>
  <path id="Path_476" data-name="Path 476" d="M359.466,352a7.466,7.466,0,1,0,7.466,7.466A7.474,7.474,0,0,0,359.466,352Zm0,11.2a3.733,3.733,0,1,1,3.733-3.733A3.737,3.737,0,0,1,359.466,363.2Zm0,0" transform="translate(-269.871 -269.871)" fill="url(#linear-gradient)"/>
  <path id="Path_477" data-name="Path 477" d="M163.807,31.605a11.218,11.218,0,0,0,3.126,4.718v1.583l-8.875,3.328A9.374,9.374,0,0,0,152,49.972V59.73h44.8V49.972a9.379,9.379,0,0,0-6.055-8.74L181.866,37.9V36.323a11.2,11.2,0,0,0,3.126-4.718,7.464,7.464,0,0,0,6.207-7.34V16.8a16.8,16.8,0,0,0-33.6,0v7.466A7.464,7.464,0,0,0,163.807,31.605Zm14.326,7.076L174.4,44.9l-3.733-6.221v-.137a10.99,10.99,0,0,0,7.466,0ZM168,41.492l3.763,6.27-3.739,1.868-2.415-7.242Zm25.067,8.48V56H155.734V49.972a5.625,5.625,0,0,1,3.634-5.243l2.744-1.028,3.731,11.2,8.556-4.278,8.556,4.278,3.731-11.2,2.746,1.03a5.622,5.622,0,0,1,3.632,5.242Zm-9.874-7.584-2.415,7.244-3.739-1.868,3.763-6.271ZM174.4,35.465A7.474,7.474,0,0,1,166.933,28V20.406a14.449,14.449,0,0,0,7.466-2.979,14.433,14.433,0,0,0,7.466,2.979V28A7.474,7.474,0,0,1,174.4,35.465Zm11.2-7.985V21.053a3.7,3.7,0,0,1,0,6.427ZM174.4,3.733A13.082,13.082,0,0,1,187.465,16.8v1.038a7.385,7.385,0,0,0-3.733-1.038h-.321a10.8,10.8,0,0,1-7.692-3.186l-1.32-1.322-1.32,1.322a10.8,10.8,0,0,1-7.692,3.186h-.321a7.385,7.385,0,0,0-3.733,1.038V16.8A13.082,13.082,0,0,1,174.4,3.733ZM163.2,21.051v6.427a3.7,3.7,0,0,1,0-6.427Zm0,0" transform="translate(-116.535 0)" fill="url(#linear-gradient)"/>
  <path id="Path_478" data-name="Path 478" d="M0,336.531H37.331V288H0Zm3.733-44.8H33.6V332.8H3.733Zm0,0" transform="translate(0 -220.803)" fill="url(#linear-gradient)"/>
  <path id="Path_479" data-name="Path 479" d="M32,320H54.4v3.733H32Zm0,0" transform="translate(-24.534 -245.337)" fill="url(#linear-gradient)"/>
  <path id="Path_480" data-name="Path 480" d="M32,352h3.733v3.733H32Zm0,0" transform="translate(-24.534 -269.871)" fill="url(#linear-gradient)"/>
  <path id="Path_481" data-name="Path 481" d="M64,352H78.933v3.733H64Zm0,0" transform="translate(-49.067 -269.871)" fill="url(#linear-gradient)"/>
  <path id="Path_482" data-name="Path 482" d="M32,384H54.4v3.733H32Zm0,0" transform="translate(-24.534 -294.405)" fill="url(#linear-gradient)"/>
  <path id="Path_483" data-name="Path 483" d="M32,416H54.4v3.733H32Zm0,0" transform="translate(-24.534 -318.938)" fill="url(#linear-gradient)"/>
  <path id="Path_484" data-name="Path 484" d="M112,448h3.733v3.733H112Zm0,0" transform="translate(-85.868 -343.472)" fill="url(#linear-gradient)"/>
  <path id="Path_485" data-name="Path 485" d="M32,448H46.933v3.733H32Zm0,0" transform="translate(-24.534 -343.472)" fill="url(#linear-gradient)"/>
  <path id="Path_486" data-name="Path 486" d="M176.113,348.983l-2.639-2.639-8.786,8.786,8.786,8.786,2.639-2.64-4.28-4.28h14.16v-3.733h-14.16Zm0,0" transform="translate(-126.262 -265.534)" fill="url(#linear-gradient)"/>
  <path id="Path_487" data-name="Path 487" d="M75.733,86.863A1.869,1.869,0,0,1,77.6,85h8.56l-4.28,4.28,2.639,2.639,8.786-8.786-8.786-8.786L81.88,76.983l4.28,4.28H77.6a5.607,5.607,0,0,0-5.6,5.6v33.6h3.733Zm0,0" transform="translate(-55.201 -56.998)" fill="url(#linear-gradient)"/>
  <path id="Path_488" data-name="Path 488" d="M347.2,109.6v23.493l-4.28-4.28-2.639,2.639,8.786,8.786,8.786-8.786-2.639-2.639-4.28,4.28V109.6a5.607,5.607,0,0,0-5.6-5.6H336v3.733h9.333A1.869,1.869,0,0,1,347.2,109.6Zm0,0" transform="translate(-257.604 -79.735)" fill="url(#linear-gradient)"/>
</svg>
